<?xml version="1.0" encoding="UTF-8"?>
<svg xmlns="http://www.w3.org/2000/svg" id="Слой_1" data-name="Слой 1" viewBox="0 0 40 40">
  <defs>
    <style>.cls-1{fill:#f99400;}.cls-2{fill:#f0efeb;}</style>
  </defs>
  <title>Bitcoin</title>
  <path class="cls-1" d="M40,20A20,20,0,0,1,21.07,40L20,40a20.08,20.08,0,0,1-3.09-.24,19.87,19.87,0,0,1-6.37-2.14,20.08,20.08,0,0,1-6.13-5.1q-.51-.63-1-1.3A20,20,0,1,1,40,20Z"></path>
  <path class="cls-2" d="M35.33,13a7.36,7.36,0,0,0-2.59-3.31,12.12,12.12,0,0,0-2.81-1.47l1.25-4.8-4-1L26,7.07l-2.54-.66L24.7,1.77l-4-1L19.54,5.38,11.15,3.2l-1,3.91,1.11.29A3.88,3.88,0,0,1,12.7,8a1.22,1.22,0,0,1,.41.69,4.83,4.83,0,0,1-.25,1.64L8.76,26.06a4.93,4.93,0,0,1-.57,1.55,1.15,1.15,0,0,1-.7.4,6.75,6.75,0,0,1-1.92-.29L4.25,30.49q.45.67,1,1.3l7,1.82-.85,3.28a19.82,19.82,0,0,0,3.81,1.56l1-3.82,2.45.64.09,0-1,3.73a20.09,20.09,0,0,0,3.09.24l1.07,0,.82-3.14a13.76,13.76,0,0,0,3.4.07,8.68,8.68,0,0,0,4.58-1.89,7.19,7.19,0,0,0,2.43-3.79,6.91,6.91,0,0,0,0-3.64,6.51,6.51,0,0,0-1.79-3,12.69,12.69,0,0,0-2.74-1.9A9.37,9.37,0,0,0,32,21.13a7,7,0,0,0,2.3-1.77,6.29,6.29,0,0,0,1.29-2.49A6.21,6.21,0,0,0,35.33,13ZM26,27.84a4.1,4.1,0,0,1-1.48,2.31,4,4,0,0,1-2.37.86,11.5,11.5,0,0,1-3.06-.44L17,30a4.16,4.16,0,0,1-1.23-.44.69.69,0,0,1-.23-.48,7.8,7.8,0,0,1,.29-1.54l1.59-6.11,3.65,1a11.11,11.11,0,0,1,3.46,1.38,3.67,3.67,0,0,1,1.41,1.77A3.85,3.85,0,0,1,26,27.84Zm2.46-11.69a3.26,3.26,0,0,1-1.08,1.74,3.57,3.57,0,0,1-2.07.77,12.14,12.14,0,0,1-3.7-.53l-3.09-.81,1.79-6.88,3.09.8a14.75,14.75,0,0,1,3.68,1.31,3.13,3.13,0,0,1,1.32,1.54A3.33,3.33,0,0,1,28.43,16.14Z"></path>
</svg>
