<svg width="24" height="25" viewBox="0 0 24 25" fill="none" xmlns="http://www.w3.org/2000/svg">
<g clip-path="url(#clip0_33_2)">
<path d="M13.7607 5.11383C13.7607 5.10666 13.7609 5.09953 13.761 5.09231C13.1878 4.95966 12.5991 4.89258 12 4.89258C7.70939 4.89258 4.21875 8.38322 4.21875 12.6738C4.21875 16.9644 7.70939 20.4551 12 20.4551C16.2906 20.4551 19.7812 16.9644 19.7812 12.6738C19.7812 12.0744 19.7141 11.4858 19.5816 10.9129C19.5743 10.9129 19.5672 10.9132 19.56 10.9132C16.3622 10.9132 13.7607 8.31159 13.7607 5.11383ZM10.1733 16.1613H8.40398V11.2733H7.24233V9.90609H10.1734L10.1733 16.1613ZM13.7924 16.2864C12.1749 16.2864 11.0758 15.5179 11.0758 14.3205C11.0758 13.6771 11.4064 13.1856 11.9694 12.8639C11.5494 12.569 11.2992 12.1401 11.2992 11.604C11.2992 10.4959 12.3179 9.78098 13.7924 9.78098C15.2668 9.78098 16.2855 10.4959 16.2855 11.604C16.2855 12.1401 16.0353 12.5691 15.6153 12.8639C16.1783 13.1856 16.5089 13.6771 16.5089 14.3205C16.5089 15.5179 15.4098 16.2864 13.7924 16.2864Z" fill="#8F92A5"/>
<path d="M13.7924 13.4895C13.2294 13.4895 12.8541 13.7844 12.8541 14.2669C12.8541 14.7495 13.2294 15.0443 13.7924 15.0443C14.3553 15.0443 14.7306 14.7495 14.7306 14.2669C14.7306 13.7844 14.3553 13.4895 13.7924 13.4895Z" fill="#8F92A5"/>
<path d="M13.7924 12.3368C14.2391 12.3368 14.543 12.0955 14.543 11.6845C14.543 11.2645 14.2302 11.0232 13.7924 11.0232C13.3545 11.0232 13.0507 11.2645 13.0507 11.6845C13.0507 12.0955 13.3455 12.3368 13.7924 12.3368Z" fill="#8F92A5"/>
<path d="M20.9829 10.7363C21.1186 11.3683 21.1875 12.0156 21.1875 12.6738C21.1875 17.7398 17.066 21.8613 12 21.8613C6.93398 21.8613 2.8125 17.7398 2.8125 12.6738C2.8125 7.60781 6.93398 3.48633 12 3.48633C12.6578 3.48633 13.3052 3.55542 13.9374 3.69122C14.1826 2.72259 14.6722 1.85039 15.3364 1.14408C14.2583 0.832078 13.1412 0.673828 12 0.673828C8.79469 0.673828 5.78123 1.92206 3.51469 4.18852C1.24823 6.45506 0 9.46852 0 12.6738C0 15.8791 1.24823 18.8926 3.51469 21.1591C5.78123 23.4256 8.79469 24.6738 12 24.6738C15.2053 24.6738 18.2188 23.4256 20.4853 21.1591C22.7518 18.8926 24 15.8791 24 12.6738C24 11.5317 23.8423 10.4146 23.5303 9.33689C22.824 10.0013 21.9517 10.491 20.9829 10.7363Z" fill="#8F92A5"/>
<path d="M19.56 9.55378C22.0082 9.55378 24 7.56202 24 5.11383C24 2.66559 22.0082 0.673828 19.56 0.673828C17.1118 0.673828 15.12 2.66559 15.12 5.11383C15.12 7.56202 17.1118 9.55378 19.56 9.55378ZM18.8569 3.29944H20.2631V4.4107H21.3743V5.81695H20.2631V6.92817H18.8569V5.81695H17.7457V4.4107H18.8569V3.29944Z" fill="#8F92A5"/>
</g>
<defs>
<clipPath id="clip0_33_2">
<rect width="24" height="24" fill="white" transform="translate(0 0.673828)"/>
</clipPath>
</defs>
</svg>
