<svg width="30" height="30" viewBox="0 0 30 30" fill="none" xmlns="http://www.w3.org/2000/svg">
<path d="M12.03 26.8281C17.6544 26.8281 22.2139 22.2687 22.2139 16.6443C22.2139 11.0199 17.6544 6.46045 12.03 6.46045C6.40565 6.46045 1.84619 11.0199 1.84619 16.6443C1.84619 22.2687 6.40565 26.8281 12.03 26.8281Z" fill="#8FEFAA"/>
<path d="M12.1452 24.5156L12.016 24.2955C10.0429 20.9338 4.79974 13.7997 4.74678 13.728L4.67114 13.6253L6.45747 11.8599L12.112 15.8083C15.6723 11.1883 18.9937 8.01515 21.1603 6.16213C23.5304 4.13511 25.0731 3.20194 25.0887 3.193L25.1238 3.172H28.1539L27.8644 3.42977C20.4205 10.0601 12.352 24.1523 12.2716 24.2938L12.1452 24.5156Z" fill="#008790"/>
</svg>
