<svg width="14" height="14" viewBox="0 0 14 14" fill="none" xmlns="http://www.w3.org/2000/svg">
<g clip-path="url(#clip0_1_637)">
<path d="M7 14C10.866 14 14 10.866 14 7C14 3.13401 10.866 0 7 0C3.13401 0 0 3.13401 0 7C0 10.866 3.13401 14 7 14Z" fill="#3241A1"/>
<path d="M14 6.99997C14 10.85 10.85 14 7 14C4.76876 14 2.80001 12.9937 1.53125 11.375C2.7125 12.3375 4.24375 12.9062 5.90624 12.9062C9.75625 12.9062 12.9063 9.75625 12.9063 5.90624C12.9063 4.24375 12.3375 2.7125 11.375 1.53125C12.9938 2.79995 14 4.7687 14 6.99997Z" fill="#232D6F"/>
<path d="M10.8063 4.9875L6.25627 9.97502C5.95001 10.325 5.42503 10.325 5.11877 9.97502L3.19376 7.83126C2.93127 7.525 2.93127 7.04376 3.2375 6.7375C3.54377 6.47501 4.025 6.47501 4.33127 6.78124L5.68752 8.3125L9.66876 3.98125C9.97503 3.67499 10.4563 3.63125 10.7625 3.93751C11.0688 4.2 11.0688 4.72501 10.8063 4.9875Z" fill="white"/>
</g>
<defs>
<clipPath id="clip0_1_637">
<rect width="14" height="14" fill="white"/>
</clipPath>
</defs>
</svg>
