<?xml version="1.0" encoding="UTF-8"?>
<svg xmlns="http://www.w3.org/2000/svg" id="Слой_1" data-name="Слой 1" viewBox="0 0 40 40">
  <defs>
    <style>.cls-1{fill:#8fc641;}</style>
  </defs>
  <title>Neteller_1</title>
  <path class="cls-1" d="M37.67,18.19a1.41,1.41,0,0,0-.34-.66,1.93,1.93,0,0,0-.76-.5,3.75,3.75,0,0,0-.95-.22H32.37l-.14.75-.34,1.86L31.58,21l-.13.71c0,.07,0,.07-.08.07H28.18v-.24l.15-.82c0-.07,0-.07.08-.07h1.81c.1,0,.09,0,.11-.09l.21-1.16v0H28.71c-.08,0-.08,0-.07-.08l.18-1c0-.1,0-.09.11-.09h1.89a.06.06,0,0,0,.06,0l.1-.55.15-.81a.26.26,0,0,0,0-.07H27a1.7,1.7,0,0,1,0,.3c0,.32-.12.64-.17,1l-.21,1.12-.25,1.34-.19,1s0,.06-.07.06H24.69c-.06,0-.07,0,0-.06l.26-1.39.25-1.33.26-1.41.1-.53H23.35L23,18.44,22.75,20l-.28,1.5c0,.06,0,.06-.07.06H21.06c-.06,0-.06,0,0-.06l.33-1.8.35-1.85.18-1a.15.15,0,0,0,0-.08h-2.2a2.37,2.37,0,0,1,0,.29l-.16.88L19.31,19l-.22,1.18-.23,1.24a.58.58,0,0,1,0,.28c0,.1,0,0-.06,0H15.61c-.09,0-.1,0-.08-.1l.18-1c0-.07,0-.07.09-.07h1.91l.22-1.23H16c-.09,0-.09,0-.07-.08l.18-1a.05.05,0,0,1,.06,0h2a.06.06,0,0,0,.06,0,1.14,1.14,0,0,1,.07-.39l.18-1v-.06H5.63a.78.78,0,0,1-.06.37l-.25,1.36L5.1,19.7l-.18,1v.06h0l-.78-2.14-.66-1.78v-.06H1.22l-.1.5-.3,1.63-.3,1.64L.23,22.12,0,23.2a.13.13,0,0,1,0,.06H2.16a.2.2,0,0,1,0-.11l.21-1.22.24-1.31.22-1.23v-.18h0l.29.83.7,2,.37,1.07a.24.24,0,0,1,0,.08h7.68a2.25,2.25,0,0,1,0-.3l.23-1.27.23-1.25.2-1.11.2-1c0-.06,0-.06.07-.06H14v.2L13.69,20l-.3,1.63-.2,1.11-.07.39H33.27a2.45,2.45,0,0,1,0-.29l.18-1,.25-1.34.09-.52h0l.44,1.46.47,1.6h2.15l-.23-.61L36,20.78c0-.08,0-.08,0-.09a3,3,0,0,0,.59-.17,1.75,1.75,0,0,0,1-1.16,2.5,2.5,0,0,0,.09-.59A2.12,2.12,0,0,0,37.67,18.19Zm-27,.13a.61.61,0,0,1-.06.32l-.18,1-.21,1.11-.19,1c0,.06,0,.06-.08.06H6.81L7,21v-.29c0-.07,0-.07.08-.07H9c.09,0,.1,0,.11-.1l.19-1.07v-.09H7.37c-.09,0-.09,0-.08-.09l.17-1c0-.07,0-.08.09-.08h3.12s.06,0,0,.07Zm24.84.94a.81.81,0,0,1-.43.44,1.52,1.52,0,0,1-.47.12H34c-.07,0-.07,0-.06-.07l.08-.42.21-1.14c0-.11,0-.11.13-.11h.45a1.49,1.49,0,0,1,.42.1.67.67,0,0,1,.42.63,1,1,0,0,1-.09.45Z"></path>
  <path class="cls-1" d="M39.22,22.38h.07a.28.28,0,0,0,.1-.46.27.27,0,0,0-.2-.07h-.46c-.15,0-.1,0-.09.1h0v.82c0,.12,0,.08.09.08s.06,0,.06-.06v-.38s.06,0,.09,0a.27.27,0,0,1,.29.11l.2.27h0a.27.27,0,0,0,.16,0A1.87,1.87,0,0,0,39.22,22.38Zm-.1-.1h-.28s0,0-.06,0,0-.14,0-.21,0-.07.07-.07h.35a.15.15,0,0,1,0,.29Z"></path>
  <path class="cls-1" d="M40,22a1,1,0,0,0-1.88.38.94.94,0,0,0,.65.79h.47a.26.26,0,0,0,.23-.08,1,1,0,0,0,.54-.65v-.36A.55.55,0,0,1,40,22Zm-1,1.09a.8.8,0,0,1-.79-.79.79.79,0,1,1,.79.79Z"></path>
</svg>
