<?xml version="1.0" encoding="UTF-8" standalone="no"?>
<svg xmlns:dc="http://purl.org/dc/elements/1.1/" xmlns:cc="http://creativecommons.org/ns#" xmlns:rdf="http://www.w3.org/1999/02/22-rdf-syntax-ns#" xmlns:svg="http://www.w3.org/2000/svg" xmlns="http://www.w3.org/2000/svg" style="fill:none" id="svg16" version="1.1" viewBox="0 0 2192.9834 679.53455" height="679.53455" width="2192.9834">
  <metadata id="metadata22"></metadata>
  <defs id="defs20"></defs>
  <path style="fill:#000000" id="path2" d="m 2191.7835,73.884546 h -8.55 v -30.15 h -97.2 v -10.5 h 97.2 v -30 h 8.55 z m -105.75,70.775004 44.1,-28.95 V 98.609946 h -44.1 v -10.65 h 105.75 v 32.399604 c 0,11.9 -2.8,20.75 -8.4,26.55 -5.6,5.9 -13.15,8.85 -22.65,8.85 -8.8,0 -15.8,-2.5 -21,-7.5 -5.2,-4.9 -8.3,-12.05 -9.3,-21.45 l -44.4,29.85 z m 52.05,-46.049604 v 20.999604 c 0,17 7.35,25.5 22.05,25.5 15,0 22.5,-8.5 22.5,-25.5 V 98.609946 Z m -26.25,135.800604 v -48.15 l -25.8,-9.6 v -11.25 l 103.35,39 v 11.85 l -103.35,39 v -11.4 z m 8.4,-3.15 57,-20.85 -57,-21.15 z m -34.2,117.833 v -10.65 l 88.35,-57.9 h -88.35 v -10.65 h 105.6 v 10.65 l -88.5,57.9 h 88.5 v 10.65 z m 26.85,87.253 c -4.8,0 -9.35,-1.15 -13.65,-3.45 -4.2,-2.2 -7.65,-5.65 -10.35,-10.35 -2.6,-4.7 -3.9,-10.55 -3.9,-17.55 0,-6.8 1.25,-12.85 3.75,-18.15 2.5,-5.3 5.9,-9.55 10.2,-12.75 4.4,-3.1 9.3,-4.9 14.7,-5.4 v 11.1 c -3.1,0.4 -6.2,1.55 -9.3,3.45 -3.1,1.9 -5.7,4.65 -7.8,8.25 -2,3.6 -3,7.95 -3,13.05 0,6.7 1.8,11.8 5.4,15.3 3.6,3.6 8.15,5.4 13.65,5.4 4.7,0 8.5,-1.2 11.4,-3.6 3,-2.3 5.3,-5.2 6.9,-8.7 1.6,-3.4 3.35,-8.1 5.25,-14.1 2.1,-6.6 4.1,-11.95 6,-16.05 2,-4 4.9,-7.4 8.7,-10.2 3.8,-2.8 8.85,-4.2 15.15,-4.2 8,0 14.5,2.8 19.5,8.4 5,5.6 7.5,13.3 7.5,23.1 0,10 -2.45,17.9 -7.35,23.7 -4.9,5.9 -11,9.4 -18.3,10.5 v -11.25 c 4.5,-0.9 8.5,-3.3 12,-7.2 3.5,-3.8 5.25,-9.05 5.25,-15.75 0,-6.2 -1.6,-11.15 -4.8,-14.85 -3.2,-3.7 -7.65,-5.55 -13.35,-5.55 -4.5,0 -8.15,1.15 -10.95,3.45 -2.8,2.3 -4.95,5.1 -6.45,8.4 -1.5,3.4 -3.2,8 -5.1,13.8 -2.1,6.7 -4.15,12.1 -6.15,16.2 -2,4.2 -5,7.75 -9,10.65 -4,2.9 -9.3,4.35 -15.9,4.35 z m 78.9,76.593 h -8.55 v -46.8 h -40.35 v 40.5 h -8.25 v -40.5 h -48.6 v -10.65 h 105.75 z m -8.55,27.614 h -39.9 v 41.25 h -8.25 v -41.25 h -40.35 v 45.75 h -8.7 v -56.4 h 105.75 v 56.4 h -8.55 z m -97.2,120.757 44.1,-28.95 v -17.1 h -44.1 v -10.65 h 105.75 v 32.4 c 0,11.9 -2.8,20.75 -8.4,26.55 -5.6,5.9 -13.15,8.85 -22.65,8.85 -8.8,0 -15.8,-2.5 -21,-7.5 -5.2,-4.9 -8.3,-12.05 -9.3,-21.45 l -44.4,29.85 z m 52.05,-46.05 v 21 c 0,17 7.35,25.5 22.05,25.5 15,0 22.5,-8.5 22.5,-25.5 v -21 z"></path>
  <path style="fill:#000000" id="path4" d="m 1.17281,667.77255 c 1.60453,-6.951 59.36734,-158.79 127.82664,-338.431 l 124.618,-326.133894 107.503,-1.60393 c 105.364,-1.069294 108.038,-1.069294 121.944,10.69292 27.811,24.059 25.137,40.6331 -31.021,189.798904 -28.347,73.781 -54.554,141.681 -59.367,150.236 -8.023,15.504 -39.044,45.979 -51.345,50.256 -4.279,1.07 -50.81,241.66 -53.484,275.878 0,0.534 -22.998,1.069 -51.345,1.069 -45.996,0 -50.81,-1.069 -48.135,-9.089 2.674,-10.158 45.996,-243.798 45.996,-249.145 0,-2.139 -9.092,-3.742 -19.789,-3.742 h -20.324 l -49.206,129.918 -48.67,129.385 -49.2054,1.604 c -49.20528,1.604 -49.20528,1.604 -45.99624,-10.693 z m 349.25064,-458.726 48.136,-128.315304 h -37.974 -37.974 l -48.67,128.315304 -48.67,128.315 h 37.973 38.509 z"></path>
  <path style="fill:#000000" id="path6" d="m 426.37045,638.36655 c 84.505,-228.828 217.146,-573.674404 225.168,-587.040604 5.884,-9.6236 20.859,-24.059 33.16,-32.6133 22.999,-15.50477 24.068,-15.50477 112.852,-17.10871 L 886.86845,0 l 16.045,16.039346 c 12.302,11.7622 16.046,20.8512 16.046,36.3559 0,13.3662 -38.509,124.038304 -111.782,321.856304 -62.042,165.741 -113.386,302.075 -114.456,303.145 -1.604,1.603 -24.068,1.603 -50.81,1.069 l -48.135,-1.604 44.926,-120.295 c 24.603,-66.296 45.996,-124.573 48.136,-129.919 2.674,-8.555 -0.535,-9.624 -37.974,-8.02 l -41.183,1.604 -48.67,129.919 -48.136,129.384 h -49.74 -49.74 z m 343.368,-433.063 45.996,-124.572004 h -40.648 -40.647 l -34.23,92.494004 c -18.72,50.256 -40.113,106.929 -47.066,125.641 l -12.302,33.683 41.183,-1.604 41.183,-1.604 z"></path>
  <path style="fill:#000000" id="path8" d="m 839.80245,673.11855 c 1.07,-3.742 57.763,-156.651 125.153,-339.5 L 1087.4335,0.534546 h 103.22 c 60.98,0 107.51,2.13858 113.93,5.34646 12.3,6.95044 26.2,32.61334 26.2,49.72204 0,12.2969 -111.24,323.460504 -125.68,351.262504 -11.24,21.92 -48.14,52.395 -70.6,58.276 -11.24,3.208 -43.33,5.881 -71.14,5.881 h -50.81 l -37.43605,103.187 -37.439,102.652 -50.275,1.604 c -39.043,1.069 -49.205,0 -47.601,-5.347 z m 306.46105,-371.578 c 17.12,-46.515 42.79,-114.949 56.16,-152.909 l 25.67,-67.900104 h -35.83 -35.3 l -55.09,148.631104 c -29.95,81.801 -54.55,150.77 -54.55,152.374 0,2.139 15.51,3.743 34.23,3.743 h 34.23 z"></path>
  <path style="fill:#000000" id="path10" d="m 1266.0735,622.32755 c 11.76,-32.079 64.71,-178.037 118.2,-325.065 53.48,-147.027 100.01,-273.738204 102.69,-281.757904 5.34,-14.9701 5.88,-14.9701 52.95,-14.9701 26.2,0 47.6,1.60394 47.6,4.27717 0,2.13858 -54.56,154.512834 -121.41,339.499834 l -121.41,335.223 h -49.74 -49.21 z"></path>
  <path style="fill:#000000" id="path12" d="m 1513.7035,633.02055 c 9.09,-26.198 64.18,-178.037 121.94,-338.431 l 105.37,-291.381774 109.64,-1.60394 109.64,-1.06929 13.37,13.3661 c 16.58,16.5741 21.39,37.9599 14.44,63.6229 -9.09,32.613004 -185.59,525.557004 -194.15,541.596004 -9.62,18.713 -32.62,40.633 -55.08,51.861 -13.91,6.95 -36.91,8.554 -129.44,8.554 h -112.85 z m 193.08,-40.633 c 9.09,-24.059 177.03,-494.547504 179.17,-502.567204 2.14,-8.5543 -1.07,-9.6236 -36.37,-8.0197 l -39.05,1.604 -76.48,213.857904 c -42.25,117.622 -83.97,233.641 -93.06,258.234 l -16.05,43.841 h 39.58 c 27.28,0 40.12,-2.138 42.26,-6.95 z"></path>
  <path style="fill:#65c18f" id="path14" d="m 2006.5335,676.53455 v -414.5 l -162,414.5 z"></path>
</svg>
