<?xml version="1.0" encoding="UTF-8"?>
<svg xmlns="http://www.w3.org/2000/svg" width="25" height="25">
  <defs>
    <linearGradient id="a" x1="-2.0098" x2="2.89509" y1="3.20598" y2="-0.16714">
      <stop offset="0.113" stop-color="#0D59EC"></stop>
      <stop offset="0.742" stop-color="#008FE1"></stop>
      <stop offset="1" stop-color="#20AFFF"></stop>
    </linearGradient>
    <linearGradient id="b" x1="-0.02504" x2="1.06699" y1="1.09303" y2="0.16456">
      <stop offset="0.113" stop-color="#0D59EC"></stop>
      <stop offset="0.742" stop-color="#008FE1"></stop>
      <stop offset="1" stop-color="#20AFFF"></stop>
    </linearGradient>
  </defs>
  <g>
    <title>Layer 1</title>
    <g stroke="null" id="svg_1" fill-rule="evenodd">
      <path stroke="null" id="svg_2" fill="url(#a)" d="m11.89636,5.31999c-0.30185,2.12462 -0.54311,3.91339 -0.97782,6.6991c1.17444,-0.02551 3.84005,0.44214 4.42674,-3.36496c0.48572,-3.16727 -1.67929,-3.46062 -3.44893,-3.33414z"></path>
      <path stroke="null" id="svg_3" fill="url(#b)" d="m22.06777,20.63662c0.45702,1.01714 -0.00319,2.30318 -0.95656,2.82079c-0.54736,0.2976 -1.17232,0.57394 -1.79621,0.72911a15.07112,15.07112 0 0 1 -3.14176,0.40813c-1.69311,0 -3.39047,-0.96931 -4.12171,-2.14907c-0.18919,0.40707 -0.87153,1.22546 -2.06723,1.61021c-0.75568,0.24445 -1.66654,0.53886 -3.56797,0.53674c-1.70374,-0.00106 -2.67518,-0.77375 -3.18853,-1.42208c-0.81839,-1.03096 -0.93849,-2.34038 -0.77906,-3.22254l0.0085,-0.04251c0.64302,-3.22573 1.52199,-9.0905 1.92693,-12.02926l0.00425,-0.0287c0.11054,-0.8152 0.2232,-1.6304 0.29016,-2.45092c0.03295,-0.41345 0.05527,-0.82902 0.05952,-1.24353c0.00425,-0.39219 -0.03189,-0.78332 -0.0287,-1.1755c0.00425,-0.36987 0.06377,-0.74399 0.23701,-1.07135c0.28165,-0.52823 0.79713,-0.94487 1.34237,-1.12661c0.59838,-0.19981 1.22333,-0.27953 1.8451,-0.3518a49.28723,49.28723 0 0 1 1.91099,-0.19131a32.41353,32.41353 0 0 1 2.33826,-0.08715c1.33493,-0.00106 2.67837,0.02126 3.99417,0.29228c1.34025,0.27634 2.69431,0.80457 3.75184,1.73031c0.72486,0.63452 1.29986,1.43484 1.73243,2.31062c0.37837,0.77162 0.53248,1.58364 0.62389,2.20434a9.21485,9.21485 0 0 1 -0.12648,3.34689a7.33681,7.33681 0 0 1 -0.97038,2.25535c-0.50379,0.78225 -1.15,1.49223 -1.9737,2.1682c0.50166,1.4561 1.80896,4.30026 2.65286,6.17937zm-14.99247,-17.51141c0.03189,0.53992 0.03614,1.0841 0.01275,1.62615c-0.02338,0.55374 -0.07121,1.10536 -0.13286,1.65591c-0.06058,0.54843 -0.13392,1.09473 -0.20832,1.64103l-0.02445,0.17856c-0.23383,1.70799 -0.48041,3.41385 -0.73868,5.11653c-0.27209,1.78983 -0.57712,3.57009 -0.88216,5.35248c-0.14136,0.83114 -0.45915,1.89611 -0.02445,2.68899c0.38687,0.70785 1.37957,0.79394 2.07148,0.72273c2.52,-0.25721 2.92069,-0.81733 2.92069,-0.81733c-0.50272,-0.55693 -0.0659,-3.095 0.44002,-6.50673l1.79089,0l1.87486,5.67027s0.55268,1.75688 2.08849,1.67185c1.96732,-0.10841 3.41492,-0.55799 3.62323,-0.80776c-0.60582,-0.33798 -2.33826,-4.67013 -3.28206,-7.85122c0.45702,-0.27846 0.90023,-0.58138 1.31793,-0.92042c0.57075,-0.46553 1.10004,-1.00226 1.50499,-1.63253c0.29122,-0.45277 0.51335,-0.95124 0.64089,-1.48054c0.06696,-0.27953 0.10416,-0.57181 0.12754,-0.85771c0.04251,-0.50379 0.02657,-1.01395 -0.04677,-1.51349c-0.07015,-0.48041 -0.17537,-1.01502 -0.39006,-1.44866c-0.39857,-0.81095 -0.96294,-1.5188 -1.73243,-1.97157c-1.29879,-0.76312 -2.79528,-0.90873 -4.25456,-0.98844a26.92501,26.92501 0 0 0 -4.74347,0.15518c-0.17643,0.02126 -1.96095,0.17856 -1.95351,0.31673z"></path>
    </g>
  </g>
</svg>
