<svg width="30" height="30" viewBox="0 0 30 30" fill="none" xmlns="http://www.w3.org/2000/svg">
    <g id = "about">
        <g clip-path="url(#clip0_35_239)">
            <path d="M5.1569 24.9266L5.18452 24.8931C5.96631 25.5779 6.94291 26.0457 8.02034 26.2026L8.27074 26.2333L8.2709 29.5588C6.28571 29.4363 4.4778 28.6587 3.06072 27.4395L2.84024 27.2434L5.1569 24.9266L5.18452 24.8931L5.1569 24.9266ZM12.6143 24.7551L14.8736 27.0142C14.9031 27.0437 14.9351 27.0692 14.9701 27.0893C13.5726 28.4414 11.7305 29.3366 9.68434 29.5344L9.37592 29.5588L9.37627 26.2333C10.6246 26.1093 11.7507 25.5698 12.6143 24.7551ZM3.29819 21.2878L3.32533 21.2863C3.42067 22.2492 3.76325 23.1395 4.28871 23.8928L4.43648 24.0948L4.37549 24.1452L2.07493 26.4462C0.947487 25.1152 0.206723 23.4463 0.0260387 21.6129L0 21.2877L3.29819 21.2878L3.32533 21.2863L3.29819 21.2878ZM14.3217 21.2863L14.3488 21.2878L17.647 21.2877C17.5374 23.0656 16.9023 24.7013 15.8951 26.0415L15.7019 26.2893L15.655 26.2328L13.3401 23.9186C13.8759 23.16 14.2252 22.2603 14.3217 21.2863ZM8.8235 16.315C11.2647 16.315 13.2437 18.294 13.2437 20.7353C13.2437 23.1765 11.2647 25.1555 8.8235 25.1555C6.38227 25.1555 4.40326 23.1765 4.40326 20.7353C4.40326 18.294 6.38227 16.315 8.8235 16.315ZM18.52 21.167C19.0835 21.4793 19.7092 21.6942 20.3733 21.7909L20.6237 21.8215L20.6238 25.147C19.6205 25.0851 18.6624 24.8559 17.7772 24.4868C18.2092 23.4583 18.4686 22.3397 18.52 21.167ZM24.9673 20.3433L27.2265 22.6024C27.256 22.6319 27.2881 22.6574 27.323 22.6775C25.9256 24.0296 24.0835 24.9249 22.0373 25.1226L21.7289 25.147L21.7292 21.8215C22.9775 21.6975 24.1037 21.158 24.9673 20.3433ZM26.6746 16.8745L26.7018 16.876L29.9999 16.8759C29.8903 18.6538 29.2552 20.2896 28.248 21.6297L28.0549 21.8775L28.0079 21.821L25.6931 19.5069C26.2288 18.7482 26.5782 17.8485 26.6746 16.8745ZM22.5171 12.111C24.3028 12.6778 25.5967 14.3496 25.5967 16.3235C25.5967 18.7647 23.6177 20.7437 21.1764 20.7437C20.1642 20.7437 19.2314 20.4035 18.4862 19.8311C18.4195 19.092 18.2685 18.3776 18.0442 17.6966C20.1669 16.4843 21.7877 14.4925 22.5171 12.111ZM2.07418 15.0252L4.37549 17.3253L4.43648 17.3758C3.87831 18.1035 3.49716 18.9742 3.3574 19.9235L3.32533 20.1842L3.29819 20.1827L0 20.1826C0.120924 18.222 0.880889 16.4343 2.07418 15.0252ZM13.1193 17.26L15.4711 14.9072C16.657 16.2588 17.4372 17.975 17.6218 19.8659L17.647 20.1826L14.3488 20.1827L14.3217 20.1842C14.221 19.1669 13.8443 18.2307 13.2676 17.4515L13.1193 17.26L15.4711 14.9072L13.1193 17.26ZM17.0261 13.2845L19.2853 15.5436C19.3149 15.5731 19.3469 15.5986 19.3818 15.6187C18.8847 16.0997 18.3314 16.5229 17.7326 16.8774C17.2855 15.8467 16.6651 14.909 15.908 14.1008C16.3146 13.8766 16.6902 13.6013 17.0261 13.2845ZM8.2709 11.9117L8.27098 15.2099C8.27098 15.2195 8.2712 15.229 8.27249 15.2371C7.09538 15.3536 6.02687 15.8396 5.18751 16.5771L5.1726 16.5602L5.1569 16.5439L2.84024 14.2271C4.28797 12.8954 6.18123 12.0406 8.2709 11.9117ZM9.37602 15.2099L9.37592 11.9117C11.304 12.0306 13.0648 12.7674 14.4628 13.9266L14.6924 14.1237L12.3415 16.4745C11.5821 15.8468 10.6522 15.4182 9.63151 15.2686L9.37452 15.2371L9.37602 15.2099L9.37592 11.9117L9.37602 15.2099ZM27.824 10.4955C29.0099 11.847 29.7902 13.5633 29.9747 15.4541L29.9999 15.7709L26.7018 15.771L26.6746 15.7725C26.5739 14.7551 26.1972 13.8189 25.6205 13.0397L25.4722 12.8482L27.824 10.4955ZM18.7334 9.81568L18.7606 9.81718L22.0588 9.81708C21.9492 11.595 21.3141 13.2307 20.3069 14.5709L20.1137 14.8187L20.0667 14.7622L17.7519 12.4481C18.2876 11.6894 18.637 10.7897 18.7334 9.81568ZM13.2353 4.84442C15.6765 4.84442 17.6555 6.82343 17.6555 9.26466C17.6555 11.0576 16.5881 12.6011 15.054 13.2946C13.4546 11.9524 11.4164 11.1179 9.18605 11.036C8.94693 10.4944 8.81502 9.89492 8.81502 9.26466C8.81502 6.82343 10.794 4.84442 13.2353 4.84442ZM22.8048 7.63403C24.3105 7.91295 25.6824 8.57512 26.8157 9.51487L27.0453 9.71195L24.6944 12.0627C24.1375 11.6023 23.4887 11.249 22.7797 11.0344C22.8859 10.461 22.9412 9.86927 22.9412 9.26466C22.9412 8.70898 22.8944 8.16419 22.8048 7.63403ZM7.73709 9.81568C7.77996 10.2486 7.87279 10.6669 8.00976 11.0646C6.87106 11.1576 5.78859 11.4485 4.79586 11.9019C4.61884 11.3383 4.49763 10.7493 4.4378 10.1423L4.41176 9.81708L7.70995 9.81718L7.73709 9.81568ZM6.48595 3.55463L8.78726 5.85467L8.84825 5.90516C8.29008 6.63296 7.90893 7.50365 7.76917 8.45289L7.73709 8.71365L7.70995 8.71214L4.41176 8.71206C4.53269 6.75143 5.29265 4.9637 6.48595 3.55463ZM19.8829 3.43663C21.0687 4.78818 21.849 6.50445 22.0336 8.39532L22.0588 8.71206L18.7606 8.71214L18.7334 8.71365C18.6327 7.6963 18.2561 6.76009 17.6793 5.98088L17.531 5.7894L19.8829 3.43663ZM12.6827 0.441162L12.6827 3.73935C12.6827 3.74889 12.683 3.7584 12.6843 3.76649C11.5071 3.88303 10.4386 4.369 9.59928 5.1065L9.58436 5.08964L9.56866 5.07327L7.252 2.75653C8.69974 1.42486 10.593 0.570046 12.6827 0.441162ZM13.7877 0.441162C15.7157 0.56003 17.4765 1.29686 18.8745 2.45605L19.1041 2.65313L16.7533 5.00388C15.9939 4.37618 15.0639 3.94758 14.0433 3.79802L13.7863 3.76649L13.7878 3.73935L13.7877 0.441162Z" fill="#414141"/>
        </g>
        <defs>
            <clipPath id="clip0_35_239">
                <rect width="30" height="30" fill="white"/>
            </clipPath>
        </defs>
    </g>
    <g id = "bonuses">
        <g clip-path="url(#clip0_35_213)">
            <path d="M7.70687 21.9061C6.9275 21.6799 6.17022 21.3469 5.46475 20.9035L8.01008 18.3574C8.01846 18.362 8.02684 18.3635 8.03446 18.3681V16.8932C7.76553 16.7278 7.51031 16.5328 7.27871 16.3012C5.67731 14.6983 5.67731 12.0935 7.27871 10.4921C8.88087 8.88997 11.4849 8.88997 13.0886 10.4921C13.3331 10.7382 13.538 11.011 13.7079 11.2966C14.3913 11.0582 15.1234 10.7877 15.8899 10.4799L17.6901 8.6797C17.8585 8.94939 18.0063 9.22594 18.1434 9.50707C18.5358 9.32575 18.9304 9.13528 19.3319 8.93568C18.8496 7.94528 18.2074 7.01506 17.3869 6.19456C13.4154 2.22152 6.9534 2.22152 2.98189 6.19456C-0.992662 10.1661 -0.992662 16.6303 2.98189 20.6018C4.33265 21.9518 5.97595 22.8341 7.70915 23.2668V21.9084H7.70763V21.9061H7.70687ZM2.67563 18.1129C0.873863 15.2476 0.870053 11.5732 2.66039 8.70103L5.20648 11.2486C4.61605 12.6253 4.6191 14.1947 5.2202 15.5676L2.67563 18.1129ZM14.901 5.88906L12.3557 8.43362C10.9645 7.82643 9.3715 7.831 7.98265 8.44658L5.43961 5.90353C8.31787 4.08043 12.0182 4.07738 14.901 5.88906ZM29.997 11.3134L23.2668 7.46684C16.187 11.9678 8.8024 13.3666 8.8024 13.3666V16.2075L9.48044 16.6029L8.69422 16.8216V19.6191L9.30598 20.0343L8.36662 20.3382V23.0687L14.8781 26.7865C22.6132 25.5188 29.5635 20.9287 29.5635 20.9287L29.5406 18.1761L29.1262 17.8485L29.8697 17.4112V14.7669L29.389 14.3516L30.0008 14.002V11.3149L29.997 11.3134ZM16.7256 12.0288L21.2342 14.6267C18.7468 15.5584 15.8533 16.2776 15.8533 16.2776L11.3569 13.7993C11.3569 13.7978 15.5501 12.4722 16.7256 12.0288ZM21.5237 23.8054C18.0017 25.1744 15.0892 25.8799 15.0892 25.8799L9.29684 22.5156V21.0513L15.0892 24.197C17.1561 23.8694 19.466 23.0763 21.5755 22.1941L21.5237 23.8054ZM21.6311 20.4921C18.2501 21.7835 15.5021 22.4486 15.5021 22.4486L9.71128 19.0827V17.6184L15.5021 20.7656C17.4699 20.4518 19.6564 19.7196 21.6822 18.8892L21.6311 20.4921ZM21.7919 15.4479L21.7416 17.0516C18.3605 18.3414 15.6186 19.0035 15.6186 19.0035L9.82785 15.6384V14.1757L15.6186 17.3213C17.5857 17.0097 19.7669 16.2791 21.7919 15.4479ZM23.3491 8.6218L27.8882 11.3027C27.0608 11.8185 25.1341 12.9262 24.2679 13.3414L19.8934 10.6674C21.7203 9.77295 23.3491 8.6218 23.3491 8.6218ZM28.4939 20.3291C27.2962 21.1222 25.9813 21.8322 24.6625 22.4585L24.706 20.771C26.942 19.6754 28.4961 18.7559 28.4961 18.7559L28.4939 20.3291ZM28.9075 16.8977C27.6078 17.7563 26.1748 18.5197 24.744 19.1833L24.7875 17.5004C27.1995 16.337 28.9075 15.3261 28.9075 15.3261V16.8977ZM29.0241 13.4542C27.7152 14.3189 26.2723 15.0876 24.8317 15.7534L24.8751 14.0713C27.3031 12.9019 29.0241 11.881 29.0241 11.881V13.4542ZM16.8635 12.5377L20.1844 14.5033C20.1867 14.5033 16.3614 15.1584 16.8635 12.5377ZM23.7255 12.6893L20.6765 10.8974C23.1419 10.7595 23.7255 12.6893 23.7255 12.6893Z" fill="#414141"/>
        </g>
        <defs>
            <clipPath id="clip0_35_213">
                <rect width="30" height="30" fill="white"/>
            </clipPath>
        </defs>
    </g>
    <g id = "deposits">
        <g clip-path="url(#clip0_35_207)">
            <path d="M11.0139 3.11139L16.0563 0.0576818C16.3225 -0.105079 16.6478 0.0964345 16.6478 0.414207V2.08832H19.7679C23.2355 2.08832 26.0599 5.04903 26.0599 8.68403H23.4277C23.4277 6.56813 21.7864 4.84751 19.7679 4.84751H16.6478V6.52163C16.6478 6.8394 16.3225 7.04092 16.0563 6.87816L11.0139 3.82444C10.7551 3.66943 10.7551 3.2664 11.0139 3.11139ZM17.9491 34.1756L12.9066 31.1218C12.6405 30.9591 12.3151 31.1606 12.3151 31.4784V33.1525H9.19504C7.17658 33.1525 5.5352 31.4319 5.5352 29.316H2.90307C2.90307 32.951 5.72743 35.9117 9.19504 35.9117H12.3151V37.5858C12.3151 37.9036 12.6405 38.1051 12.9066 37.9423L17.9491 34.8886C18.2079 34.7336 18.2079 34.3306 17.9491 34.1756ZM21.9712 17.3801C21.1875 17.3801 20.5442 18.0467 20.5442 18.876C20.5442 19.6975 21.1801 20.3718 21.9712 20.3718C22.7549 20.3718 23.3982 19.7053 23.3982 18.876C23.3982 18.0467 22.7549 17.3801 21.9712 17.3801ZM7.02131 17.3801C6.23759 17.3801 5.59435 18.0467 5.59435 18.876C5.59435 19.6975 6.2302 20.3718 7.02131 20.3718C7.80504 20.3718 8.44828 19.7053 8.44828 18.876C8.44828 18.0467 7.80504 17.3801 7.02131 17.3801ZM28.034 12.5515V25.2004C28.034 26.5568 26.9841 27.6574 25.6902 27.6574H3.30972C2.01584 27.6574 0.965942 26.5568 0.965942 25.2004V12.5515C0.965942 11.1952 2.01584 10.0946 3.30972 10.0946H25.6902C26.9767 10.0869 28.034 11.1952 28.034 12.5515ZM26.0303 15.21C25.8455 15.2565 25.6458 15.2875 25.4462 15.2875C24.1375 15.2875 23.0729 14.1714 23.0729 12.7996C23.0729 12.5903 23.095 12.3888 23.1468 12.195H5.71264C5.74222 12.3423 5.757 12.4973 5.757 12.6523C5.757 14.0242 4.69232 15.1402 3.38365 15.1402C3.24318 15.1402 3.1027 15.1247 2.96961 15.1015V22.6583C3.1027 22.635 3.24318 22.6195 3.38365 22.6195C4.69232 22.6195 5.757 23.7356 5.757 25.1074C5.757 25.2624 5.74222 25.4174 5.71264 25.5647H23.0802C23.0655 25.4639 23.0581 25.3632 23.0581 25.2547C23.0581 23.8828 24.1227 22.7668 25.4314 22.7668C25.631 22.7668 25.8307 22.7978 26.0155 22.8443V15.21H26.0303ZM19.6348 18.876C19.6348 21.8522 17.3354 24.2626 14.4963 24.2626C11.6571 24.2626 9.35769 21.8522 9.35769 18.876C9.35769 15.8998 11.6571 13.4894 14.4963 13.4894C17.3354 13.4816 19.6348 15.8998 19.6348 18.876ZM14.0157 17.4731C14.0157 17.2794 14.06 17.1244 14.1488 17.0004C14.2375 16.8764 14.378 16.8143 14.5702 16.8143C14.755 16.8143 14.9103 16.8919 15.0212 17.0391C15.1099 17.1631 15.1617 17.3259 15.1839 17.5506C15.1913 17.6514 15.28 17.7212 15.3761 17.7212L16.3373 17.7057C16.4408 17.7057 16.5295 17.6127 16.5221 17.5041C16.4999 17.0624 16.3594 16.6903 16.1155 16.3958C15.8641 16.0858 15.524 15.8843 15.1025 15.799V15.0395C15.1025 14.9465 15.0286 14.869 14.9399 14.869H14.3558C14.2671 14.869 14.1931 14.9465 14.1931 15.0395V15.7758C13.7495 15.8455 13.3872 16.016 13.1063 16.2951C12.8031 16.6051 12.6479 16.9926 12.6479 17.4654C12.6479 17.9924 12.7883 18.3877 13.0767 18.659C13.365 18.9302 13.8234 19.1938 14.4593 19.465C14.7181 19.5813 14.9029 19.7053 14.999 19.8216C15.1025 19.9456 15.1543 20.1161 15.1543 20.3408C15.1543 20.5346 15.1025 20.6896 15.0064 20.8059C14.9103 20.9221 14.7624 20.9841 14.5702 20.9841C14.341 20.9841 14.1562 20.9066 14.0083 20.7516C13.89 20.6276 13.816 20.4338 13.8013 20.1781C13.7939 20.0773 13.7051 19.9998 13.609 20.0076L12.6479 20.0231C12.5443 20.0231 12.4556 20.1161 12.463 20.2246C12.4852 20.7594 12.6552 21.1702 12.9584 21.4647C13.2911 21.7824 13.7051 21.9685 14.1931 22.0305V22.7203C14.1931 22.8133 14.2671 22.8908 14.3558 22.8908H14.9399C15.0286 22.8908 15.1025 22.8133 15.1025 22.7203V22.0072C15.5018 21.9297 15.8197 21.7669 16.0711 21.5112C16.3668 21.2167 16.5147 20.8214 16.5147 20.3331C16.5147 19.8216 16.3668 19.4263 16.0785 19.1473C15.7827 18.8682 15.3317 18.597 14.7107 18.318C14.4445 18.1939 14.2597 18.0699 14.1635 17.9537C14.06 17.8219 14.0157 17.6669 14.0157 17.4731Z" fill="#414141"/>
        </g>
        <defs>
            <clipPath id="clip0_35_207">
                <rect width="29" height="38" fill="white"/>
            </clipPath>
        </defs>
    </g>
    <g id = "mobile">
        <path d="M22.228 0H7.77308C6.87319 0 6.13562 0.737791 6.13562 1.63626V28.3637C6.13562 29.2622 6.87341 29.9999 7.77308 29.9999H22.228C23.1264 29.9999 23.8642 29.2636 23.8642 28.3637V1.63626C23.8643 0.737791 23.1279 0 22.228 0ZM14.9994 28.3613C14.1717 28.3613 13.4995 27.6894 13.4995 26.8614C13.4995 26.0335 14.1714 25.3615 14.9994 25.3615C15.8271 25.3615 16.4993 26.0335 16.4993 26.8614C16.4993 27.6894 15.8271 28.3613 14.9994 28.3613ZM21.9884 23.7266H8.01265V3.68058H21.9885V23.7266H21.9884ZM13.9411 9.63603H9.54338V6.05578H13.9411V9.63603ZM19.8734 9.63603H15.4744V6.05578H19.8734V9.63603ZM13.9411 15.4088H9.54338V11.8299H13.9411V15.4088ZM19.8734 15.4088H15.4744V11.8299H19.8734V15.4088ZM13.9411 21.2935H9.54338V17.7146H13.9411V21.2935ZM19.8734 21.2935H15.4744V17.7146H19.8734V21.2935Z" fill="#414141"/>
    </g>
    <g id = "safe">
    <path d="M15.0474 1.7327L15 1.71689L14.9526 1.7327L3.70257 5.4827L3.6 5.51689V5.625V16.875C3.6 23.1717 8.70329 28.275 15 28.275C21.2967 28.275 26.4 23.1717 26.4 16.875V5.625V5.51689L26.2974 5.4827L15.0474 1.7327ZM23.9906 16.875C23.9906 21.84 19.965 25.8656 15 25.8656C10.035 25.8656 6.00938 21.84 6.00938 16.875V7.3132L15 4.14342L23.9906 7.3132V16.875Z" fill="#414141" stroke="#414141" stroke-width="0.3"/>
    <path d="M10.8016 13.5511C10.9478 13.6119 11.0805 13.7009 11.1922 13.813C11.1922 13.8131 11.1922 13.8131 11.1923 13.8131L14.1504 16.7713L19.8069 11.1177C19.807 11.1176 19.807 11.1176 19.807 11.1176L19.8071 11.1175L19.9131 11.2236C20.0056 11.131 20.1154 11.0575 20.2363 11.0074C20.3572 10.9572 20.4868 10.9314 20.6177 10.9314C20.7486 10.9314 20.8782 10.9572 20.9991 11.0074C21.12 11.0575 21.2298 11.131 21.3223 11.2236L10.8016 13.5511ZM10.8016 13.5511C10.6554 13.4904 10.4987 13.4591 10.3404 13.4591C10.182 13.4591 10.0253 13.4904 9.87908 13.5511C9.7331 13.6118 9.60051 13.7007 9.48892 13.8126C9.37672 13.9243 9.28769 14.0571 9.22694 14.2033C9.16619 14.3495 9.13491 14.5062 9.13491 14.6646C9.13491 14.8229 9.16619 14.9796 9.22694 15.1258C9.28767 15.272 9.37666 15.4047 9.4888 15.5163C9.48884 15.5164 9.48888 15.5164 9.48892 15.5165L13.2797 19.3072L13.3787 19.2082L13.2797 19.3072L13.3411 19.3687M10.8016 13.5511L13.3411 19.3687M13.3411 19.3687C13.4475 19.4753 13.5739 19.5598 13.713 19.6175L13.7705 19.479M13.3411 19.3687L13.7705 19.479M13.7705 19.479L13.713 19.6175C13.8521 19.6752 14.0013 19.7049 14.1519 19.7049C14.3025 19.7049 14.4516 19.6752 14.5907 19.6175L14.5333 19.479M13.7705 19.479H14.5333M14.5333 19.479L14.5907 19.6175C14.7299 19.5598 14.8562 19.4753 14.9626 19.3687M14.5333 19.479L14.9626 19.3687M14.9626 19.3687L21.5103 12.821C21.6169 12.7146 21.7015 12.5882 21.7592 12.4491C21.8169 12.31 21.8466 12.1609 21.8466 12.0103C21.8466 11.8596 21.8169 11.7105 21.7592 11.5714C21.7015 11.4323 21.6169 11.306 21.5104 11.1996L14.9626 19.3687ZM21.5103 11.1995L21.4285 11.1177L21.5103 11.1995Z" fill="#414141" stroke="#414141" stroke-width="0.3"/>
    </g>
    <g id = "software">
        <g clip-path="url(#clip0_35_201)">
            <path d="M28.7277 12.7914L26.799 12.7852C26.5004 11.1987 25.8782 9.66197 24.9388 8.27457L26.3137 6.90585C26.8114 6.41435 26.8114 5.61178 26.3199 5.11406L24.9388 3.72667C24.4473 3.22895 23.6447 3.22895 23.147 3.72045L21.772 5.08917C20.3909 4.14351 18.8604 3.51514 17.2739 3.20406L17.2801 1.2754C17.2801 0.578598 16.714 0.00622148 16.0172 0.00622148L14.0574 0C13.3606 0 12.7882 0.566155 12.7882 1.26296L12.782 3.1854C11.1893 3.47781 9.64636 4.09374 8.25274 5.03318L6.9089 3.68312C6.41741 3.1854 5.61483 3.1854 5.11712 3.6769L3.72972 5.05807C3.232 5.54956 3.232 6.35214 3.7235 6.84985L5.0549 8.18747C4.09679 9.57487 3.45598 11.124 3.15112 12.7229L1.27846 12.7167C0.58165 12.7167 0.00927325 13.2829 0.00927325 13.9797L0.00305176 15.9394C0.00305176 16.6363 0.569207 17.2086 1.26601 17.2086L3.13246 17.2148C3.42487 18.82 4.05324 20.3816 4.99891 21.7814L3.67995 23.0879C3.18223 23.5794 3.18223 24.382 3.67373 24.8797L5.0549 26.2671C5.5464 26.7648 6.34897 26.7648 6.84669 26.2733L8.16564 24.9668C9.56548 25.9249 11.1146 26.5595 12.7198 26.8582L12.7136 28.7246C12.7136 29.4214 13.2797 29.9938 13.9765 29.9938L15.9363 30C16.6331 30 17.2055 29.4338 17.2055 28.737L17.2117 26.8644C18.8106 26.5657 20.3598 25.9374 21.7534 24.9793L23.0848 26.3169C23.5763 26.8146 24.3788 26.8146 24.8766 26.3231L26.264 24.9419C26.7617 24.4504 26.7617 23.6479 26.2702 23.1501L24.9263 21.8001C25.872 20.4127 26.4941 18.8698 26.799 17.2771L28.7214 17.2833C29.4182 17.2833 29.9906 16.7171 29.9906 16.0203L29.9968 14.0606C29.9968 13.3637 29.4307 12.7914 28.7277 12.7914ZM14.9968 23.1813C10.48 23.1813 6.81558 19.5168 6.81558 15C6.81558 10.4832 10.48 6.81875 14.9968 6.81875C19.5136 6.81875 23.1781 10.4832 23.1781 15C23.1781 19.5168 19.5136 23.1813 14.9968 23.1813ZM14.9968 9.45666C11.9359 9.45666 9.45349 11.939 9.45349 15C9.45349 18.061 11.9359 20.5433 14.9968 20.5433C18.0578 20.5433 20.5402 18.061 20.5402 15C20.5402 11.939 18.0578 9.45666 14.9968 9.45666ZM14.9968 13.1647C13.9827 13.1647 13.1615 13.9859 13.1615 15C13.1615 15.4417 12.8069 15.7963 12.3651 15.7963C11.9234 15.7963 11.5688 15.4417 11.5688 15C11.5688 13.1087 13.1055 11.572 14.9968 11.572C15.4386 11.572 15.7932 11.9266 15.7932 12.3683C15.7932 12.81 15.4386 13.1647 14.9968 13.1647Z" fill="#414141"/>
        </g>
        <defs>
            <clipPath id="clip0_35_201">
                <rect width="30" height="30" fill="white"/>
            </clipPath>
        </defs>
    </g>
    <g id = "support">
        <g clip-path="url(#clip0_35_219)">
            <path d="M13.8461 1.00964C6.7067 1.00964 0.865356 6.85099 0.865356 13.9904V17.2356C0.865356 20.2645 3.24516 22.6443 6.27401 22.6443C6.92305 22.6443 7.35574 22.2116 7.35574 21.5625V12.9087C7.35574 12.2596 6.92305 11.827 6.27401 11.827C5.08411 11.827 4.00238 12.2596 3.13699 12.9087C3.67786 7.50003 8.3293 3.17311 13.8461 3.17311C19.363 3.17311 24.0144 7.39186 24.5553 12.9087C23.6899 12.2596 22.6081 11.827 21.4182 11.827C20.7692 11.827 20.3365 12.2596 20.3365 12.9087V21.5625C20.3365 22.2116 20.7692 22.6443 21.4182 22.6443C22.0673 22.6443 22.8245 22.5361 23.3654 22.2116C22.1755 24.375 20.3365 26.1058 18.0649 27.0794C17.8485 25.7813 16.7668 24.6995 15.3605 24.6995C13.9543 24.6995 12.7644 25.8895 12.7644 27.2957C12.7644 28.0529 13.0889 28.8101 13.738 29.351C14.2788 29.7837 14.8197 30 15.4687 30C15.5769 30 15.7932 30 15.9014 30C22.0673 29.1346 26.8269 23.6178 26.8269 17.2356V13.9904C26.8269 6.85099 20.9855 1.00964 13.8461 1.00964Z" fill="#414141"/>
        </g>
        <defs>
            <clipPath id="clip0_35_219">
                <rect width="27.6923" height="30" fill="white"/>
            </clipPath>
        </defs>
    </g>
    <g id = "thoughts">
    <path d="M14.9999 0C9.34783 0 4.74951 4.59826 4.74951 10.2503C4.74951 13.6693 6.43807 16.8008 9.19402 18.6988V25.9342C9.19402 26.5123 9.66277 26.9811 10.2409 26.9811H11.0595C12.1296 31.0049 17.8696 31.0075 18.9403 26.9811H19.7589C20.3371 26.9811 20.8058 26.5123 20.8058 25.9342V18.6988C23.5621 16.8005 25.2504 13.6689 25.2504 10.2503C25.2502 4.59826 20.652 0 14.9999 0ZM13.3159 26.9812H16.684C15.905 28.2296 14.094 28.2284 13.3159 26.9812ZM18.712 24.8873C17.9165 24.8873 12.0434 24.8873 11.2878 24.8873V23.6336H18.712V24.8873ZM18.712 21.5398H11.2878V19.8077C13.6034 20.7064 16.2661 20.7569 18.712 19.8077V21.5398ZM18.0406 17.8208V13.0466C18.0406 12.4685 17.5718 11.9997 16.9937 11.9997C16.4155 11.9997 15.9468 12.4685 15.9468 13.0466V18.3518C15.2841 18.4288 14.6728 18.4239 14.0531 18.3518V13.0466C14.0531 12.4685 13.5844 11.9997 13.0063 11.9997C12.4281 11.9997 11.9594 12.4685 11.9594 13.0466V17.8208C8.93434 16.6065 6.84342 13.6532 6.84342 10.2504C6.84342 5.75279 10.5025 2.09385 15 2.09385C19.4976 2.09385 23.1566 5.75279 23.1566 10.2503C23.1564 13.6516 21.0661 16.6063 18.0406 17.8208Z" fill="#414141"/>
    </g>
</svg>