<?xml version="1.0" encoding="UTF-8"?>
<svg xmlns="http://www.w3.org/2000/svg" width="256" height="256" viewBox="0 0 2560 2560">
  <g fill="rgb(3,108,181)">
    <g>
      <path d="M1159 2549 c-562 -50 -1034 -486 -1135 -1047 -23 -130 -21 -343 5 -469 124 -603 636 -1024 1246 -1025 208 0 382 40 560 130 l70 35 -54 48 -54 48 -87 -92 -87 -92 -134 119 c-74 66 -142 126 -152 135 -16 13 -24 7 -103 -77 -47 -51 -89 -92 -93 -92 -7 0 -83 67 -414 367 l-147 134 142 157 c78 86 158 174 177 195 l36 39 -69 62 -69 62 172 193 c94 105 171 195 171 199 0 4 -29 34 -65 67 l-65 60 248 277 c136 152 252 277 258 277 6 1 74 -57 151 -129 78 -71 144 -130 146 -130 8 0 247 273 247 281 0 11 -153 108 -236 148 -198 97 -437 140 -665 120z"></path>
      <path d="M2087 2044 l-94 -106 109 -101 c91 -84 111 -98 122 -86 7 8 51 57 99 110 l87 96 -104 97 c-57 53 -109 96 -114 96 -6 0 -53 -48 -105 -106z"></path>
      <path d="M1400 1880 c-69 -77 -126 -144 -128 -148 -1 -5 42 -49 95 -98 54 -49 119 -108 144 -132 l47 -42 132 145 c72 80 130 150 128 155 -3 10 -280 260 -288 260 -3 0 -61 -63 -130 -140z"></path>
      <path d="M1892 1588 c-49 -57 -91 -107 -92 -111 -1 -8 193 -189 209 -195 4 -1 50 47 104 107 l97 109 -105 96 c-58 53 -109 96 -114 96 -5 0 -49 -46 -99 -102z"></path>
      <path d="M1184 1355 c-71 -81 -129 -150 -129 -154 0 -4 65 -66 144 -137 l144 -130 128 142 c71 79 130 147 131 151 2 4 -46 53 -107 107 -60 55 -126 115 -146 133 l-36 34 -129 -146z"></path>
      <path d="M2342 1406 l-62 -70 32 -34 c18 -18 51 -48 72 -65 l39 -31 64 69 c72 79 74 68 -27 154 l-55 48 -63 -71z"></path>
      <path d="M1696 1102 l-97 -107 103 -97 c57 -54 108 -97 113 -95 6 1 53 49 105 106 l94 104 -94 88 c-52 49 -102 94 -112 99 -13 8 -34 -10 -112 -98z"></path>
      <path d="M2151 954 c-33 -37 -61 -70 -61 -73 0 -4 31 -35 69 -69 l69 -62 65 72 65 73 -65 60 c-36 33 -69 61 -73 63 -4 2 -35 -27 -69 -64z"></path>
      <path d="M963 829 l-133 -148 144 -130 c79 -72 148 -131 152 -131 11 0 259 279 259 290 0 7 -133 130 -270 250 -20 17 -23 14 -152 -131z"></path>
      <path d="M1504 663 c-43 -49 -86 -97 -96 -109 -19 -21 -18 -22 87 -118 59 -54 110 -96 114 -94 4 2 50 50 101 107 l95 104 -105 98 c-58 54 -108 99 -111 99 -4 0 -42 -39 -85 -87z"></path>
      <path d="M1952 499 l-63 -71 67 -61 c37 -34 70 -63 74 -65 4 -1 36 29 71 69 l63 71 -69 64 c-39 35 -72 63 -75 63 -3 1 -33 -31 -68 -70z"></path>
    </g>
  </g>
</svg>
