<svg width="137" height="16" viewBox="0 0 137 16" fill="none" xmlns="http://www.w3.org/2000/svg">
<g clip-path="url(#clip0_33_8)">
<path d="M8.0815 10.9935C8.02394 12.062 7.13751 12.7989 6.13596 12.7252H3.5112V9.12673L5.8942 9.06532C7.20658 9.06532 8.09301 9.8022 8.09301 10.9321V10.9935H8.0815ZM7.71311 5.51599C7.64404 6.46166 6.82668 7.12485 5.95176 7.05117H3.5112V3.858H5.76757C6.89575 3.858 7.71311 4.5212 7.71311 5.39318V5.51599ZM8.51896 7.92315C9.77381 7.25996 10.1537 6.58448 10.1537 5.25809C10.1537 3.858 9.46292 2.65442 8.27721 2.05264C7.64404 1.78245 6.89575 1.72104 4.76601 1.72104H0V3.858H0.943992V12.7375H0V14.8744H6.58492C8.96797 14.8744 10.6027 13.4129 10.6027 11.2023C10.7178 9.72852 9.84284 8.38984 8.51896 7.92315ZM14.2866 8.56178C14.4707 7.50558 15.3342 6.64589 16.3702 6.64589H16.4278C17.4063 6.64589 18.2697 7.50558 18.2697 8.62319L14.2866 8.56178ZM14.1599 10.3426H20.7909C20.8484 9.0162 20.48 7.76349 19.8699 6.64589C19.0756 5.31949 17.7172 4.59489 16.3012 4.59489C13.7224 4.59489 11.8229 6.78098 11.8229 9.81449C11.8229 12.848 13.7224 15.034 16.3012 15.034C18.5115 15.034 20.1692 13.7077 20.5951 11.5339L18.2582 11.5953C18.0165 12.455 17.2106 13.1182 16.3587 13.0445C15.9443 13.0568 14.4132 12.9217 14.1599 10.3426ZM31.5087 14.8621H32.8786V8.24247L28.5846 8.23019V8.24247L28.527 9.45832H31.4511C31.4511 9.78992 31.4511 10.1461 31.3936 10.4777C31.0827 12.1971 29.7128 13.5112 28.032 13.5849C25.9137 13.5849 24.302 11.276 24.302 8.10737C24.302 4.07907 26.5354 2.69128 28.032 2.69128C29.022 2.75268 30.0236 3.28078 30.6452 4.14047C30.956 4.60717 31.2093 5.12299 31.3244 5.7125H32.6943V1.72104H31.3936V3.62466C30.6452 2.23686 29.2753 1.31575 27.7212 1.37716C24.9237 1.37716 22.6789 4.41067 22.6789 8.24247C22.6789 12.0743 24.9122 15.034 27.7787 15.034C28.7688 15.034 29.7703 14.641 30.5762 13.9165C30.9445 13.5235 31.2554 13.155 31.5087 12.6883V14.8621ZM40.5342 11.3374C40.3499 12.7866 39.1527 13.8305 37.7713 13.9042C36.7697 13.9042 35.8833 13.1182 35.8257 12.0006C35.8257 10.7479 36.7697 10.2321 39.6592 9.82677L40.5342 9.69167V11.3374ZM40.5342 14.8621H43.228L43.1013 13.6463H41.789V8.19334C41.789 5.70021 40.1543 4.77911 38.2087 4.77911C37.3337 4.77911 36.3898 5.03702 35.699 5.6388C35.135 6.16691 34.7551 6.86695 34.6284 7.65296H36.0674C36.3207 6.33885 37.0114 5.89672 38.3238 5.89672C39.6477 5.89672 40.4536 6.62132 40.4536 7.73893V8.72144L39.5786 8.78285C35.8142 9.17585 34.2485 10.097 34.2485 12.0006V12.1971C34.3751 13.8428 35.7566 15.1569 37.3222 15.0218C38.6346 15.0218 39.8895 14.2849 40.5227 13.0322V14.8621H40.5342ZM55.9834 14.8621H58.5852V13.6463H57.2843V7.30908C57.2843 5.58968 56.4784 4.59489 55.0624 4.59489C54.3257 4.59489 53.6464 4.92649 53.0823 5.45459C52.7139 5.8476 52.4607 6.25288 52.219 6.70729C51.9772 5.31949 51.298 4.58261 50.0546 4.58261C48.3278 4.58261 47.522 6.0441 47.0845 6.70729L47.027 4.76683H44.3101V5.98269H45.6685V13.6463H44.3101V14.8621H48.3278V13.6463H46.9694V8.69687C46.9694 7.77577 48.017 5.8476 49.4445 5.8476C50.377 5.8476 50.8029 6.37569 50.8029 7.64068V14.8621H53.5198V13.6463H52.1498V8.57406C52.1498 7.84946 53.0133 5.78619 54.625 5.78619C55.5459 5.78619 55.9834 6.44938 55.9834 7.83718V14.8621ZM68.0251 9.77764C68.0251 12.2339 67.035 13.7568 65.4348 13.7568C63.9498 13.6217 62.787 12.2953 62.787 10.6496L62.7295 8.93023C62.7295 7.46874 64.0879 5.88444 65.4463 5.88444C66.9775 5.87216 68.0251 7.33365 68.0251 9.77764ZM69.5101 9.98642C69.5101 7.07573 67.9099 4.76683 65.8032 4.76683C64.203 4.76683 63.1439 6.20375 62.7755 6.92835V1.37716H60.1853V2.59302H61.4171V13.6463H60.1162V14.8621H62.7755V13.0322C63.3281 13.8305 64.134 15.034 65.8032 15.034C67.7833 15.034 69.5101 12.7006 69.5101 9.98642ZM70.2354 14.8621H74.2301V13.6463H72.9868V1.37716H70.3045V2.50705H71.6168V13.6463H70.2469V14.8621H70.2354ZM76.8433 9.04076C76.8433 8.70916 76.9699 8.37756 77.0275 8.05825C77.3383 6.86695 78.3284 6.01953 79.5026 5.94584C80.0553 5.88444 80.6193 6.14234 81.0568 6.53535C81.6784 7.25996 81.9892 8.11965 81.9892 9.04076H76.8433ZM76.7858 10.1584H83.5434C83.5434 6.67045 81.6899 4.75455 79.3876 4.75455C77.0966 4.75455 75.3007 6.98976 75.3007 9.88817C75.3007 12.9217 77.0966 15.0218 79.6407 15.0218C80.815 15.0218 81.8741 14.4937 82.6109 13.5726C82.9793 13.1059 83.2326 12.6515 83.3592 12.062L81.8166 12.1234C81.3215 13.3147 80.6423 13.8305 79.5832 13.8305C78.9615 13.8305 78.3399 13.5726 77.8449 13.1059C77.2232 12.4673 76.9124 11.6076 76.7858 10.1584ZM92.2124 10.011H88.9885L90.6 4.16504L92.2124 10.011ZM93.6395 14.8621H96.4252V12.7743H95.4925L92.0965 1.72104H89.1264L85.7768 12.7743H84.8443V14.8621H87.6992L88.5055 12.0129H92.8447L93.6395 14.8621ZM109.261 6.68273H110.067V4.76683H106.349V6.68273H107.282L106.038 12.5778L104.495 4.76683H102.078L100.524 12.7129L99.2346 6.68273H100.156V4.76683H96.4366V6.68273H97.2428L99.2802 14.8621H101.756L103.241 7.86174L104.794 14.8621H107.27L109.261 6.68273ZM116.699 11.1532C116.641 12.3445 115.708 13.2655 114.592 13.2655C113.659 13.2655 113.037 12.7375 113.037 11.9515C113.037 10.5637 114.465 10.3672 116.629 10.1707H116.687V11.0918V11.1532H116.699ZM116.767 14.8621H119.68V12.934H118.874L118.932 8.25475C118.932 6.01953 117.562 4.76683 114.96 4.76683C112.726 4.76683 111.241 6.01953 111.115 7.99684L113.348 8.05825V7.99684C113.406 7.07573 113.843 6.48622 115.018 6.48622C116.192 6.48622 116.687 6.95292 116.687 8.46353C113.705 8.72145 110.608 9.05304 110.608 11.9515C110.608 13.7322 112.036 15.0463 113.901 15.0463C115.018 15.0463 116.077 14.5796 116.756 13.6708V14.8621H116.767ZM126.403 6.94064C126.772 6.94064 127.14 7.00204 127.508 7.07573V4.72998C127.14 4.66858 126.829 4.59489 126.461 4.59489C125.413 4.59489 124.734 5.13527 124.124 6.41253V4.76683H120.981V6.74414H121.902V12.934H120.981V14.8621H125.287V12.934H124.181V9.02848C124.25 7.81261 125.229 6.87923 126.403 6.94064ZM130.432 8.56178C130.616 7.50558 131.48 6.64589 132.516 6.64589H132.574C133.552 6.64589 134.415 7.50558 134.415 8.62319L130.432 8.56178ZM130.363 10.3426H136.994C137.052 9.0162 136.683 7.76349 136.074 6.64589C135.279 5.31949 133.92 4.59489 132.504 4.59489C129.926 4.59489 128.015 6.78098 128.015 9.81449C128.015 12.848 129.914 15.034 132.504 15.034C134.715 15.034 136.372 13.7077 136.798 11.5339L134.461 11.5953C134.22 12.455 133.413 13.1182 132.562 13.0445C132.148 13.0568 130.616 12.9217 130.363 10.3426Z" fill="#8F92A5"/>
</g>
<defs>
<clipPath id="clip0_33_8">
<rect width="137" height="15" fill="white" transform="translate(0 0.673828)"/>
</clipPath>
</defs>
</svg>
