<?xml version="1.0" encoding="UTF-8"?>
<svg xmlns="http://www.w3.org/2000/svg" width="290" height="166" viewBox="0 0 290 166" fill="none">
  <path d="M32.5587 0.192154C36.4746 0.192154 40.2415 0.192154 44.1574 0.192154C44.1574 29.042 44.1574 57.8918 44.1574 86.8536C40.316 86.8536 36.5119 86.8536 32.5587 86.8536C32.5587 57.9664 32.5587 29.1913 32.5587 0.192154ZM4.81107 164.11C11.4496 164.11 18.1254 164.184 24.764 164.073C26.8525 164.035 28.9783 163.737 31.0296 163.289C37.2206 161.945 40.9874 157.317 41.6214 150.525C42.1062 145.15 39.0107 140.448 33.4537 138.059C33.23 137.947 33.0062 137.798 32.7078 137.649C33.0062 137.425 33.1554 137.275 33.3046 137.201C37.7427 134.402 39.9058 130.371 39.0107 125.183C38.0783 119.883 34.7964 116.412 29.4632 115.218C27.5984 114.808 25.6591 114.509 23.757 114.509C17.9763 114.434 12.1955 114.472 6.41476 114.472C5.70616 114.472 4.96025 114.472 4.17706 114.472C4.17706 131.117 4.17706 147.502 4.17706 164.035C4.43812 164.035 4.6246 164.11 4.81107 164.11ZM10.7783 140.858C16.8201 141.157 22.75 141.194 28.6427 141.866C32.7451 142.351 34.871 145.859 34.6845 150.375C34.498 154.443 31.8128 157.728 27.673 157.989C22.116 158.325 16.559 158.064 10.8156 158.064C10.7783 152.503 10.7783 146.942 10.7783 140.858ZM10.741 120.63C10.8902 120.518 11.0021 120.369 11.114 120.369C16.4472 120.481 21.7804 120.443 27.0763 120.816C30.4328 121.078 32.4841 123.802 32.7078 127.422C32.9316 130.931 31.1041 133.73 27.7849 134.626C26.2931 135.036 24.7267 135.26 23.1976 135.297C19.1324 135.372 15.0299 135.335 10.741 135.335C10.741 130.259 10.741 125.407 10.741 120.63ZM220.825 86.9655C223.435 86.9655 225.971 86.8536 228.507 87.0028C230.186 87.0775 230.708 86.5923 230.708 84.8382C230.633 57.2946 230.67 29.7884 230.67 2.24486C230.67 1.57306 230.67 0.938591 230.67 0.192154C227.277 0.192154 224.107 0.192154 220.862 0.192154C220.825 29.1913 220.825 57.9291 220.825 86.9655ZM53.9661 126.265C51.43 131.267 50.796 136.604 51.2435 142.202C52.2878 154.779 60.6792 164.408 73.6579 165.006C82.7952 165.416 92.4174 161.161 96.4079 151.122C98.4965 145.859 99.0186 140.485 98.3473 134.849C96.8182 122.048 87.6809 113.688 72.8747 113.501C65.3784 113.651 58.2923 117.719 53.9661 126.265ZM58.1058 143.545C57.6583 139.477 57.5464 135.372 58.8517 131.379C61.4251 123.429 67.355 119.1 75.56 119.212C83.1309 119.361 88.8743 123.989 90.9628 131.938C92.6411 138.283 92.6038 144.591 89.471 150.599C86.4128 156.422 81.5272 159.258 76.0075 159.37C64.3714 159.482 58.9263 151.047 58.1058 143.545ZM288.963 136.977C288.441 122.906 278.557 113.389 264.572 113.576C256.404 113.688 249.989 117.159 245.589 124.138C242.344 129.251 241.3 134.887 241.561 140.896C242.12 153.846 250.325 164.184 263.677 165.006C272.777 165.565 283.033 161.385 287.061 150.711C288.441 147.054 289.224 143.322 289 138.992C288.963 138.582 289 137.761 288.963 136.977ZM276.655 155.003C268.935 162.505 255.807 160.378 250.847 150.674C246.782 142.724 246.968 134.439 251.518 126.639C254.95 120.742 260.581 118.764 267.108 119.324C273 119.809 277.327 122.869 279.975 128.206C281.765 131.826 282.473 135.708 282.287 139.365C282.511 145.636 280.87 150.898 276.655 155.003ZM240.143 86.8162C243.388 86.8162 246.484 86.8162 249.654 86.8162C249.654 57.8545 249.654 29.042 249.654 0.154832C246.446 0.154832 243.351 0.154832 240.143 0.154832C240.143 29.1913 240.143 57.9664 240.143 86.8162ZM151.12 163.998C163.502 163.998 175.772 163.998 188.079 163.998C188.079 162.094 188.079 160.34 188.079 158.288C177.898 158.288 167.828 158.288 157.758 158.288C157.758 152.503 157.758 147.016 157.758 141.306C166.933 141.306 175.958 141.306 185.021 141.306C185.021 139.291 185.021 137.462 185.021 135.447C175.809 135.447 166.784 135.447 157.796 135.447C157.796 130.296 157.796 125.37 157.796 120.219C167.604 120.219 177.264 120.219 186.886 120.219C186.886 118.167 186.886 116.338 186.886 114.546C174.877 114.546 163.054 114.546 151.12 114.546C151.12 131.08 151.12 147.502 151.12 163.998ZM72.1288 0.192154C69.1079 0.192154 66.1616 0.192154 63.1034 0.192154C63.1034 29.1166 63.1034 57.8918 63.1034 86.8536C66.1616 86.8536 69.0706 86.8536 72.1288 86.8536C72.1288 57.9291 72.1288 29.1166 72.1288 0.192154ZM179.651 86.8536C182.634 86.8536 185.543 86.8536 188.527 86.8536C188.527 57.9291 188.527 29.1166 188.527 0.192154C185.543 0.192154 182.672 0.192154 179.651 0.192154C179.651 29.1913 179.651 57.9664 179.651 86.8536ZM198.522 0.192154C196.135 0.192154 193.935 0.192154 191.697 0.192154C191.697 29.1539 191.697 58.0037 191.697 86.8536C194.084 86.8536 196.284 86.8536 198.522 86.8536C198.522 57.8918 198.522 29.042 198.522 0.192154ZM196.172 120.369C201.655 120.369 206.988 120.369 212.545 120.369C212.545 135.073 212.545 149.554 212.545 163.961C214.82 163.961 216.871 163.961 219.146 163.961C219.146 149.368 219.146 134.924 219.146 120.257C224.666 120.257 229.999 120.257 235.407 120.257C235.407 118.241 235.407 116.412 235.407 114.509C222.279 114.509 209.263 114.509 196.135 114.509C196.172 116.562 196.172 118.316 196.172 120.369ZM95.0653 86.8536C97.0047 86.8536 98.8321 86.8536 100.771 86.8536C100.771 57.9291 100.771 29.1166 100.771 0.192154C98.8321 0.192154 97.0047 0.192154 95.0653 0.192154C95.0653 29.1166 95.0653 57.9291 95.0653 86.8536ZM122.664 86.8162C122.664 57.8545 122.664 29.042 122.664 0.229476C120.687 0.229476 118.897 0.229476 117.069 0.229476C117.069 29.1539 117.069 57.9291 117.069 86.8162C119.046 86.8162 120.836 86.8162 122.664 86.8162ZM53.7423 86.8536C55.6816 86.8536 57.5091 86.8536 59.4485 86.8536C59.4485 57.9291 59.4485 29.1166 59.4485 0.192154C57.5091 0.192154 55.6816 0.192154 53.7423 0.192154C53.7423 29.1913 53.7423 57.9664 53.7423 86.8536ZM14.9181 86.7789C16.8947 86.7789 18.7595 86.7789 20.6242 86.7789C20.6242 57.8171 20.6242 29.042 20.6242 0.192154C18.6849 0.192154 16.8574 0.192154 14.9181 0.192154C14.9181 29.1913 14.9181 57.9664 14.9181 86.7789ZM83.2428 0.0428663C81.378 -0.181065 80.8559 0.453407 80.8559 2.39414C80.9305 29.8257 80.8932 57.22 80.8932 84.6516C80.8932 85.0994 80.7813 85.5846 80.9305 85.9578C81.1169 86.3684 81.5645 86.9282 81.9001 86.9282C83.4665 87.0402 85.0702 86.9655 86.7112 86.9655C86.7112 57.9291 86.7112 29.1539 86.7112 0.0801882C85.4432 0.0801882 84.3243 0.192154 83.2428 0.0428663ZM209.822 0.229476C207.883 0.229476 206.093 0.229476 204.265 0.229476C204.265 29.1913 204.265 58.0037 204.265 86.8536C206.205 86.8536 207.958 86.8536 209.822 86.8536C209.822 57.9291 209.822 29.1166 209.822 0.229476ZM140.416 163.998C140.416 162.094 140.416 160.303 140.416 158.362C139.633 158.362 138.962 158.362 138.29 158.362C131.577 158.362 124.864 158.325 118.188 158.4C116.51 158.437 115.988 158.026 115.988 156.235C116.062 143.06 116.025 129.886 116.025 116.711C116.025 116.002 115.951 115.293 115.913 114.546C113.713 114.546 111.699 114.546 109.61 114.546C109.61 131.043 109.61 147.427 109.61 163.998C119.978 163.998 130.16 163.998 140.416 163.998ZM212.172 86.8536C213.216 86.8536 214.186 86.8536 215.23 86.8536C215.23 57.9291 215.23 29.1166 215.23 0.192154C214.223 0.192154 213.291 0.192154 212.172 0.192154C212.172 29.1166 212.172 57.9291 212.172 86.8536ZM170.849 86.8536C171.931 86.8536 172.863 86.8536 173.945 86.8536C173.945 57.9291 173.945 29.1166 173.945 0.192154C172.9 0.192154 171.931 0.192154 170.849 0.192154C170.849 29.1166 170.849 57.9291 170.849 86.8536ZM258.232 0.266798C257.15 0.266798 256.143 0.266798 255.136 0.266798C255.136 29.2286 255.136 57.9664 255.136 86.8536C256.218 86.8536 257.15 86.8536 258.232 86.8536C258.232 57.9291 258.232 29.1166 258.232 0.266798ZM266.996 86.8162C268.04 86.8162 268.973 86.8162 270.129 86.8162C270.129 85.9578 270.129 85.2114 270.129 84.465C270.129 57.1827 270.129 29.863 270.129 2.58075C270.129 -0.218387 270.091 -0.218387 266.996 0.304119C266.996 29.0793 266.996 57.9291 266.996 86.8162ZM140.006 0.192154C138.924 0.192154 137.992 0.192154 136.91 0.192154C136.91 29.1166 136.91 57.9291 136.91 86.8536C137.992 86.8536 138.962 86.8536 140.006 86.8536C140.006 57.9291 140.006 29.1166 140.006 0.192154ZM6.37747 86.8536C7.45903 86.8536 8.39141 86.8536 9.47297 86.8536C9.47297 57.9291 9.47297 29.1166 9.47297 0.192154C8.4287 0.192154 7.45903 0.192154 6.37747 0.192154C6.37747 29.1913 6.37747 57.9664 6.37747 86.8536ZM47.7005 86.8162C48.7448 86.8162 49.7144 86.8162 50.6841 86.8162C50.6841 57.8545 50.6841 29.042 50.6841 0.154832C49.6025 0.154832 48.7075 0.154832 47.7005 0.154832C47.7005 29.1166 47.7005 57.9291 47.7005 86.8162ZM131.652 86.7789C132.771 86.7789 133.74 86.7789 134.747 86.7789C134.747 57.8171 134.747 29.042 134.747 0.192154C133.666 0.192154 132.696 0.192154 131.652 0.192154C131.652 29.1166 131.652 57.9291 131.652 86.7789ZM26.0693 86.8536C27.1136 86.8536 28.0832 86.8536 29.1648 86.8536C29.1648 57.9291 29.1648 29.1166 29.1648 0.192154C28.1205 0.192154 27.1509 0.192154 26.0693 0.192154C26.0693 29.1166 26.0693 57.9291 26.0693 86.8536ZM0 86.8162C1.08156 86.8162 1.93935 86.8162 2.87173 86.8162C2.87173 57.8545 2.87173 29.042 2.87173 0.154832C1.86476 0.154832 1.04426 0.154832 0 0.154832C0 29.1539 0 58.0037 0 86.8162ZM157.236 0.229476C156.192 0.229476 155.26 0.229476 154.327 0.229476C154.327 29.1913 154.327 58.0037 154.327 86.8909C155.334 86.8909 156.192 86.8909 157.236 86.8909C157.236 57.8918 157.236 29.0793 157.236 0.229476ZM148.285 86.8162C149.33 86.8162 150.262 86.8162 151.232 86.8162C151.232 57.8545 151.232 29.042 151.232 0.192154C150.188 0.192154 149.292 0.192154 148.285 0.192154C148.285 29.1166 148.285 57.9291 148.285 86.8162ZM145.302 0.229476C144.258 0.229476 143.288 0.229476 142.356 0.229476C142.356 29.1913 142.356 58.0037 142.356 86.8536C143.4 86.8536 144.332 86.8536 145.302 86.8536C145.302 57.9291 145.302 29.1166 145.302 0.229476ZM278.446 0.229476C277.401 0.229476 276.469 0.229476 275.499 0.229476C275.499 29.1913 275.499 58.0037 275.499 86.8909C276.506 86.8909 277.364 86.8909 278.446 86.8909C278.446 57.9291 278.446 29.1166 278.446 0.229476ZM280.721 86.8162C281.765 86.8162 282.697 86.8162 283.63 86.8162C283.63 57.8545 283.63 29.042 283.63 0.154832C282.623 0.154832 281.765 0.154832 280.721 0.154832C280.721 29.1166 280.721 57.9291 280.721 86.8162ZM111.102 86.8162C112.146 86.8162 113.042 86.8162 113.974 86.8162C113.974 57.8545 113.974 29.042 113.974 0.154832C113.004 0.154832 112.146 0.154832 111.102 0.154832C111.102 29.1539 111.102 58.0037 111.102 86.8162ZM89.8067 86.8162C90.851 86.8162 91.7833 86.8162 92.7157 86.8162C92.7157 57.8545 92.7157 29.0793 92.7157 0.154832C91.7088 0.154832 90.8137 0.154832 89.8067 0.154832C89.8067 29.2286 89.8067 58.0411 89.8067 86.8162Z" fill="black"></path>
</svg>
