<svg width="30" height="30" viewBox="0 0 30 30" fill="none" xmlns="http://www.w3.org/2000/svg">
<g clip-path="url(#clip0_35_239)">
<path d="M5.1569 24.9266L5.18452 24.8931C5.96631 25.5779 6.94291 26.0457 8.02034 26.2026L8.27074 26.2333L8.2709 29.5588C6.28571 29.4363 4.4778 28.6587 3.06072 27.4395L2.84024 27.2434L5.1569 24.9266L5.18452 24.8931L5.1569 24.9266ZM12.6143 24.7551L14.8736 27.0142C14.9031 27.0437 14.9351 27.0692 14.9701 27.0893C13.5726 28.4414 11.7305 29.3366 9.68434 29.5344L9.37592 29.5588L9.37627 26.2333C10.6246 26.1093 11.7507 25.5698 12.6143 24.7551ZM3.29819 21.2878L3.32533 21.2863C3.42067 22.2492 3.76325 23.1395 4.28871 23.8928L4.43648 24.0948L4.37549 24.1452L2.07493 26.4462C0.947487 25.1152 0.206723 23.4463 0.0260387 21.6129L0 21.2877L3.29819 21.2878L3.32533 21.2863L3.29819 21.2878ZM14.3217 21.2863L14.3488 21.2878L17.647 21.2877C17.5374 23.0656 16.9023 24.7013 15.8951 26.0415L15.7019 26.2893L15.655 26.2328L13.3401 23.9186C13.8759 23.16 14.2252 22.2603 14.3217 21.2863ZM8.8235 16.315C11.2647 16.315 13.2437 18.294 13.2437 20.7353C13.2437 23.1765 11.2647 25.1555 8.8235 25.1555C6.38227 25.1555 4.40326 23.1765 4.40326 20.7353C4.40326 18.294 6.38227 16.315 8.8235 16.315ZM18.52 21.167C19.0835 21.4793 19.7092 21.6942 20.3733 21.7909L20.6237 21.8215L20.6238 25.147C19.6205 25.0851 18.6624 24.8559 17.7772 24.4868C18.2092 23.4583 18.4686 22.3397 18.52 21.167ZM24.9673 20.3433L27.2265 22.6024C27.256 22.6319 27.2881 22.6574 27.323 22.6775C25.9256 24.0296 24.0835 24.9249 22.0373 25.1226L21.7289 25.147L21.7292 21.8215C22.9775 21.6975 24.1037 21.158 24.9673 20.3433ZM26.6746 16.8745L26.7018 16.876L29.9999 16.8759C29.8903 18.6538 29.2552 20.2896 28.248 21.6297L28.0549 21.8775L28.0079 21.821L25.6931 19.5069C26.2288 18.7482 26.5782 17.8485 26.6746 16.8745ZM22.5171 12.111C24.3028 12.6778 25.5967 14.3496 25.5967 16.3235C25.5967 18.7647 23.6177 20.7437 21.1764 20.7437C20.1642 20.7437 19.2314 20.4035 18.4862 19.8311C18.4195 19.092 18.2685 18.3776 18.0442 17.6966C20.1669 16.4843 21.7877 14.4925 22.5171 12.111ZM2.07418 15.0252L4.37549 17.3253L4.43648 17.3758C3.87831 18.1035 3.49716 18.9742 3.3574 19.9235L3.32533 20.1842L3.29819 20.1827L0 20.1826C0.120924 18.222 0.880889 16.4343 2.07418 15.0252ZM13.1193 17.26L15.4711 14.9072C16.657 16.2588 17.4372 17.975 17.6218 19.8659L17.647 20.1826L14.3488 20.1827L14.3217 20.1842C14.221 19.1669 13.8443 18.2307 13.2676 17.4515L13.1193 17.26L15.4711 14.9072L13.1193 17.26ZM17.0261 13.2845L19.2853 15.5436C19.3149 15.5731 19.3469 15.5986 19.3818 15.6187C18.8847 16.0997 18.3314 16.5229 17.7326 16.8774C17.2855 15.8467 16.6651 14.909 15.908 14.1008C16.3146 13.8766 16.6902 13.6013 17.0261 13.2845ZM8.2709 11.9117L8.27098 15.2099C8.27098 15.2195 8.2712 15.229 8.27249 15.2371C7.09538 15.3536 6.02687 15.8396 5.18751 16.5771L5.1726 16.5602L5.1569 16.5439L2.84024 14.2271C4.28797 12.8954 6.18123 12.0406 8.2709 11.9117ZM9.37602 15.2099L9.37592 11.9117C11.304 12.0306 13.0648 12.7674 14.4628 13.9266L14.6924 14.1237L12.3415 16.4745C11.5821 15.8468 10.6522 15.4182 9.63151 15.2686L9.37452 15.2371L9.37602 15.2099L9.37592 11.9117L9.37602 15.2099ZM27.824 10.4955C29.0099 11.847 29.7902 13.5633 29.9747 15.4541L29.9999 15.7709L26.7018 15.771L26.6746 15.7725C26.5739 14.7551 26.1972 13.8189 25.6205 13.0397L25.4722 12.8482L27.824 10.4955ZM18.7334 9.81568L18.7606 9.81718L22.0588 9.81708C21.9492 11.595 21.3141 13.2307 20.3069 14.5709L20.1137 14.8187L20.0667 14.7622L17.7519 12.4481C18.2876 11.6894 18.637 10.7897 18.7334 9.81568ZM13.2353 4.84442C15.6765 4.84442 17.6555 6.82343 17.6555 9.26466C17.6555 11.0576 16.5881 12.6011 15.054 13.2946C13.4546 11.9524 11.4164 11.1179 9.18605 11.036C8.94693 10.4944 8.81502 9.89492 8.81502 9.26466C8.81502 6.82343 10.794 4.84442 13.2353 4.84442ZM22.8048 7.63403C24.3105 7.91295 25.6824 8.57512 26.8157 9.51487L27.0453 9.71195L24.6944 12.0627C24.1375 11.6023 23.4887 11.249 22.7797 11.0344C22.8859 10.461 22.9412 9.86927 22.9412 9.26466C22.9412 8.70898 22.8944 8.16419 22.8048 7.63403ZM7.73709 9.81568C7.77996 10.2486 7.87279 10.6669 8.00976 11.0646C6.87106 11.1576 5.78859 11.4485 4.79586 11.9019C4.61884 11.3383 4.49763 10.7493 4.4378 10.1423L4.41176 9.81708L7.70995 9.81718L7.73709 9.81568ZM6.48595 3.55463L8.78726 5.85467L8.84825 5.90516C8.29008 6.63296 7.90893 7.50365 7.76917 8.45289L7.73709 8.71365L7.70995 8.71214L4.41176 8.71206C4.53269 6.75143 5.29265 4.9637 6.48595 3.55463ZM19.8829 3.43663C21.0687 4.78818 21.849 6.50445 22.0336 8.39532L22.0588 8.71206L18.7606 8.71214L18.7334 8.71365C18.6327 7.6963 18.2561 6.76009 17.6793 5.98088L17.531 5.7894L19.8829 3.43663ZM12.6827 0.441162L12.6827 3.73935C12.6827 3.74889 12.683 3.7584 12.6843 3.76649C11.5071 3.88303 10.4386 4.369 9.59928 5.1065L9.58436 5.08964L9.56866 5.07327L7.252 2.75653C8.69974 1.42486 10.593 0.570046 12.6827 0.441162ZM13.7877 0.441162C15.7157 0.56003 17.4765 1.29686 18.8745 2.45605L19.1041 2.65313L16.7533 5.00388C15.9939 4.37618 15.0639 3.94758 14.0433 3.79802L13.7863 3.76649L13.7878 3.73935L13.7877 0.441162Z" fill="#414141"/>
</g>
<defs>
<clipPath id="clip0_35_239">
<rect width="30" height="30" fill="white"/>
</clipPath>
</defs>
</svg>
