<svg width="30" height="30" viewBox="0 0 30 30" fill="none" xmlns="http://www.w3.org/2000/svg">
<g clip-path="url(#clip0_35_213)">
<path d="M7.70687 21.9061C6.9275 21.6799 6.17022 21.3469 5.46475 20.9035L8.01008 18.3574C8.01846 18.362 8.02684 18.3635 8.03446 18.3681V16.8932C7.76553 16.7278 7.51031 16.5328 7.27871 16.3012C5.67731 14.6983 5.67731 12.0935 7.27871 10.4921C8.88087 8.88997 11.4849 8.88997 13.0886 10.4921C13.3331 10.7382 13.538 11.011 13.7079 11.2966C14.3913 11.0582 15.1234 10.7877 15.8899 10.4799L17.6901 8.6797C17.8585 8.94939 18.0063 9.22594 18.1434 9.50707C18.5358 9.32575 18.9304 9.13528 19.3319 8.93568C18.8496 7.94528 18.2074 7.01506 17.3869 6.19456C13.4154 2.22152 6.9534 2.22152 2.98189 6.19456C-0.992662 10.1661 -0.992662 16.6303 2.98189 20.6018C4.33265 21.9518 5.97595 22.8341 7.70915 23.2668V21.9084H7.70763V21.9061H7.70687ZM2.67563 18.1129C0.873863 15.2476 0.870053 11.5732 2.66039 8.70103L5.20648 11.2486C4.61605 12.6253 4.6191 14.1947 5.2202 15.5676L2.67563 18.1129ZM14.901 5.88906L12.3557 8.43362C10.9645 7.82643 9.3715 7.831 7.98265 8.44658L5.43961 5.90353C8.31787 4.08043 12.0182 4.07738 14.901 5.88906ZM29.997 11.3134L23.2668 7.46684C16.187 11.9678 8.8024 13.3666 8.8024 13.3666V16.2075L9.48044 16.6029L8.69422 16.8216V19.6191L9.30598 20.0343L8.36662 20.3382V23.0687L14.8781 26.7865C22.6132 25.5188 29.5635 20.9287 29.5635 20.9287L29.5406 18.1761L29.1262 17.8485L29.8697 17.4112V14.7669L29.389 14.3516L30.0008 14.002V11.3149L29.997 11.3134ZM16.7256 12.0288L21.2342 14.6267C18.7468 15.5584 15.8533 16.2776 15.8533 16.2776L11.3569 13.7993C11.3569 13.7978 15.5501 12.4722 16.7256 12.0288ZM21.5237 23.8054C18.0017 25.1744 15.0892 25.8799 15.0892 25.8799L9.29684 22.5156V21.0513L15.0892 24.197C17.1561 23.8694 19.466 23.0763 21.5755 22.1941L21.5237 23.8054ZM21.6311 20.4921C18.2501 21.7835 15.5021 22.4486 15.5021 22.4486L9.71128 19.0827V17.6184L15.5021 20.7656C17.4699 20.4518 19.6564 19.7196 21.6822 18.8892L21.6311 20.4921ZM21.7919 15.4479L21.7416 17.0516C18.3605 18.3414 15.6186 19.0035 15.6186 19.0035L9.82785 15.6384V14.1757L15.6186 17.3213C17.5857 17.0097 19.7669 16.2791 21.7919 15.4479ZM23.3491 8.6218L27.8882 11.3027C27.0608 11.8185 25.1341 12.9262 24.2679 13.3414L19.8934 10.6674C21.7203 9.77295 23.3491 8.6218 23.3491 8.6218ZM28.4939 20.3291C27.2962 21.1222 25.9813 21.8322 24.6625 22.4585L24.706 20.771C26.942 19.6754 28.4961 18.7559 28.4961 18.7559L28.4939 20.3291ZM28.9075 16.8977C27.6078 17.7563 26.1748 18.5197 24.744 19.1833L24.7875 17.5004C27.1995 16.337 28.9075 15.3261 28.9075 15.3261V16.8977ZM29.0241 13.4542C27.7152 14.3189 26.2723 15.0876 24.8317 15.7534L24.8751 14.0713C27.3031 12.9019 29.0241 11.881 29.0241 11.881V13.4542ZM16.8635 12.5377L20.1844 14.5033C20.1867 14.5033 16.3614 15.1584 16.8635 12.5377ZM23.7255 12.6893L20.6765 10.8974C23.1419 10.7595 23.7255 12.6893 23.7255 12.6893Z" fill="#414141"/>
</g>
<defs>
<clipPath id="clip0_35_213">
<rect width="30" height="30" fill="white"/>
</clipPath>
</defs>
</svg>
