<svg width="29" height="38" viewBox="0 0 29 38" fill="none" xmlns="http://www.w3.org/2000/svg">
<g clip-path="url(#clip0_35_207)">
<path d="M11.0139 3.11139L16.0563 0.0576818C16.3225 -0.105079 16.6478 0.0964345 16.6478 0.414207V2.08832H19.7679C23.2355 2.08832 26.0599 5.04903 26.0599 8.68403H23.4277C23.4277 6.56813 21.7864 4.84751 19.7679 4.84751H16.6478V6.52163C16.6478 6.8394 16.3225 7.04092 16.0563 6.87816L11.0139 3.82444C10.7551 3.66943 10.7551 3.2664 11.0139 3.11139ZM17.9491 34.1756L12.9066 31.1218C12.6405 30.9591 12.3151 31.1606 12.3151 31.4784V33.1525H9.19504C7.17658 33.1525 5.5352 31.4319 5.5352 29.316H2.90307C2.90307 32.951 5.72743 35.9117 9.19504 35.9117H12.3151V37.5858C12.3151 37.9036 12.6405 38.1051 12.9066 37.9423L17.9491 34.8886C18.2079 34.7336 18.2079 34.3306 17.9491 34.1756ZM21.9712 17.3801C21.1875 17.3801 20.5442 18.0467 20.5442 18.876C20.5442 19.6975 21.1801 20.3718 21.9712 20.3718C22.7549 20.3718 23.3982 19.7053 23.3982 18.876C23.3982 18.0467 22.7549 17.3801 21.9712 17.3801ZM7.02131 17.3801C6.23759 17.3801 5.59435 18.0467 5.59435 18.876C5.59435 19.6975 6.2302 20.3718 7.02131 20.3718C7.80504 20.3718 8.44828 19.7053 8.44828 18.876C8.44828 18.0467 7.80504 17.3801 7.02131 17.3801ZM28.034 12.5515V25.2004C28.034 26.5568 26.9841 27.6574 25.6902 27.6574H3.30972C2.01584 27.6574 0.965942 26.5568 0.965942 25.2004V12.5515C0.965942 11.1952 2.01584 10.0946 3.30972 10.0946H25.6902C26.9767 10.0869 28.034 11.1952 28.034 12.5515ZM26.0303 15.21C25.8455 15.2565 25.6458 15.2875 25.4462 15.2875C24.1375 15.2875 23.0729 14.1714 23.0729 12.7996C23.0729 12.5903 23.095 12.3888 23.1468 12.195H5.71264C5.74222 12.3423 5.757 12.4973 5.757 12.6523C5.757 14.0242 4.69232 15.1402 3.38365 15.1402C3.24318 15.1402 3.1027 15.1247 2.96961 15.1015V22.6583C3.1027 22.635 3.24318 22.6195 3.38365 22.6195C4.69232 22.6195 5.757 23.7356 5.757 25.1074C5.757 25.2624 5.74222 25.4174 5.71264 25.5647H23.0802C23.0655 25.4639 23.0581 25.3632 23.0581 25.2547C23.0581 23.8828 24.1227 22.7668 25.4314 22.7668C25.631 22.7668 25.8307 22.7978 26.0155 22.8443V15.21H26.0303ZM19.6348 18.876C19.6348 21.8522 17.3354 24.2626 14.4963 24.2626C11.6571 24.2626 9.35769 21.8522 9.35769 18.876C9.35769 15.8998 11.6571 13.4894 14.4963 13.4894C17.3354 13.4816 19.6348 15.8998 19.6348 18.876ZM14.0157 17.4731C14.0157 17.2794 14.06 17.1244 14.1488 17.0004C14.2375 16.8764 14.378 16.8143 14.5702 16.8143C14.755 16.8143 14.9103 16.8919 15.0212 17.0391C15.1099 17.1631 15.1617 17.3259 15.1839 17.5506C15.1913 17.6514 15.28 17.7212 15.3761 17.7212L16.3373 17.7057C16.4408 17.7057 16.5295 17.6127 16.5221 17.5041C16.4999 17.0624 16.3594 16.6903 16.1155 16.3958C15.8641 16.0858 15.524 15.8843 15.1025 15.799V15.0395C15.1025 14.9465 15.0286 14.869 14.9399 14.869H14.3558C14.2671 14.869 14.1931 14.9465 14.1931 15.0395V15.7758C13.7495 15.8455 13.3872 16.016 13.1063 16.2951C12.8031 16.6051 12.6479 16.9926 12.6479 17.4654C12.6479 17.9924 12.7883 18.3877 13.0767 18.659C13.365 18.9302 13.8234 19.1938 14.4593 19.465C14.7181 19.5813 14.9029 19.7053 14.999 19.8216C15.1025 19.9456 15.1543 20.1161 15.1543 20.3408C15.1543 20.5346 15.1025 20.6896 15.0064 20.8059C14.9103 20.9221 14.7624 20.9841 14.5702 20.9841C14.341 20.9841 14.1562 20.9066 14.0083 20.7516C13.89 20.6276 13.816 20.4338 13.8013 20.1781C13.7939 20.0773 13.7051 19.9998 13.609 20.0076L12.6479 20.0231C12.5443 20.0231 12.4556 20.1161 12.463 20.2246C12.4852 20.7594 12.6552 21.1702 12.9584 21.4647C13.2911 21.7824 13.7051 21.9685 14.1931 22.0305V22.7203C14.1931 22.8133 14.2671 22.8908 14.3558 22.8908H14.9399C15.0286 22.8908 15.1025 22.8133 15.1025 22.7203V22.0072C15.5018 21.9297 15.8197 21.7669 16.0711 21.5112C16.3668 21.2167 16.5147 20.8214 16.5147 20.3331C16.5147 19.8216 16.3668 19.4263 16.0785 19.1473C15.7827 18.8682 15.3317 18.597 14.7107 18.318C14.4445 18.1939 14.2597 18.0699 14.1635 17.9537C14.06 17.8219 14.0157 17.6669 14.0157 17.4731Z" fill="#414141"/>
</g>
<defs>
<clipPath id="clip0_35_207">
<rect width="29" height="38" fill="white"/>
</clipPath>
</defs>
</svg>
