<svg width="30" height="30" viewBox="0 0 30 30" fill="none" xmlns="http://www.w3.org/2000/svg">
<path d="M22.228 0H7.77308C6.87319 0 6.13562 0.737791 6.13562 1.63626V28.3637C6.13562 29.2622 6.87341 29.9999 7.77308 29.9999H22.228C23.1264 29.9999 23.8642 29.2636 23.8642 28.3637V1.63626C23.8643 0.737791 23.1279 0 22.228 0ZM14.9994 28.3613C14.1717 28.3613 13.4995 27.6894 13.4995 26.8614C13.4995 26.0335 14.1714 25.3615 14.9994 25.3615C15.8271 25.3615 16.4993 26.0335 16.4993 26.8614C16.4993 27.6894 15.8271 28.3613 14.9994 28.3613ZM21.9884 23.7266H8.01265V3.68058H21.9885V23.7266H21.9884ZM13.9411 9.63603H9.54338V6.05578H13.9411V9.63603ZM19.8734 9.63603H15.4744V6.05578H19.8734V9.63603ZM13.9411 15.4088H9.54338V11.8299H13.9411V15.4088ZM19.8734 15.4088H15.4744V11.8299H19.8734V15.4088ZM13.9411 21.2935H9.54338V17.7146H13.9411V21.2935ZM19.8734 21.2935H15.4744V17.7146H19.8734V21.2935Z" fill="#414141"/>
</svg>
