<svg width="30" height="30" viewBox="0 0 30 30" fill="none" xmlns="http://www.w3.org/2000/svg">
<path d="M15.0474 1.7327L15 1.71689L14.9526 1.7327L3.70257 5.4827L3.6 5.51689V5.625V16.875C3.6 23.1717 8.70329 28.275 15 28.275C21.2967 28.275 26.4 23.1717 26.4 16.875V5.625V5.51689L26.2974 5.4827L15.0474 1.7327ZM23.9906 16.875C23.9906 21.84 19.965 25.8656 15 25.8656C10.035 25.8656 6.00938 21.84 6.00938 16.875V7.3132L15 4.14342L23.9906 7.3132V16.875Z" fill="#414141" stroke="#414141" stroke-width="0.3"/>
<path d="M10.8016 13.5511C10.9478 13.6119 11.0805 13.7009 11.1922 13.813C11.1922 13.8131 11.1922 13.8131 11.1923 13.8131L14.1504 16.7713L19.8069 11.1177C19.807 11.1176 19.807 11.1176 19.807 11.1176L19.8071 11.1175L19.9131 11.2236C20.0056 11.131 20.1154 11.0575 20.2363 11.0074C20.3572 10.9572 20.4868 10.9314 20.6177 10.9314C20.7486 10.9314 20.8782 10.9572 20.9991 11.0074C21.12 11.0575 21.2298 11.131 21.3223 11.2236L10.8016 13.5511ZM10.8016 13.5511C10.6554 13.4904 10.4987 13.4591 10.3404 13.4591C10.182 13.4591 10.0253 13.4904 9.87908 13.5511C9.7331 13.6118 9.60051 13.7007 9.48892 13.8126C9.37672 13.9243 9.28769 14.0571 9.22694 14.2033C9.16619 14.3495 9.13491 14.5062 9.13491 14.6646C9.13491 14.8229 9.16619 14.9796 9.22694 15.1258C9.28767 15.272 9.37666 15.4047 9.4888 15.5163C9.48884 15.5164 9.48888 15.5164 9.48892 15.5165L13.2797 19.3072L13.3787 19.2082L13.2797 19.3072L13.3411 19.3687M10.8016 13.5511L13.3411 19.3687M13.3411 19.3687C13.4475 19.4753 13.5739 19.5598 13.713 19.6175L13.7705 19.479M13.3411 19.3687L13.7705 19.479M13.7705 19.479L13.713 19.6175C13.8521 19.6752 14.0013 19.7049 14.1519 19.7049C14.3025 19.7049 14.4516 19.6752 14.5907 19.6175L14.5333 19.479M13.7705 19.479H14.5333M14.5333 19.479L14.5907 19.6175C14.7299 19.5598 14.8562 19.4753 14.9626 19.3687M14.5333 19.479L14.9626 19.3687M14.9626 19.3687L21.5103 12.821C21.6169 12.7146 21.7015 12.5882 21.7592 12.4491C21.8169 12.31 21.8466 12.1609 21.8466 12.0103C21.8466 11.8596 21.8169 11.7105 21.7592 11.5714C21.7015 11.4323 21.6169 11.306 21.5104 11.1996L14.9626 19.3687ZM21.5103 11.1995L21.4285 11.1177L21.5103 11.1995Z" fill="#414141" stroke="#414141" stroke-width="0.3"/>
</svg>
