<svg width="30" height="30" viewBox="0 0 30 30" fill="none" xmlns="http://www.w3.org/2000/svg">
<g clip-path="url(#clip0_35_201)">
<path d="M28.7277 12.7914L26.799 12.7852C26.5004 11.1987 25.8782 9.66197 24.9388 8.27457L26.3137 6.90585C26.8114 6.41435 26.8114 5.61178 26.3199 5.11406L24.9388 3.72667C24.4473 3.22895 23.6447 3.22895 23.147 3.72045L21.772 5.08917C20.3909 4.14351 18.8604 3.51514 17.2739 3.20406L17.2801 1.2754C17.2801 0.578598 16.714 0.00622148 16.0172 0.00622148L14.0574 0C13.3606 0 12.7882 0.566155 12.7882 1.26296L12.782 3.1854C11.1893 3.47781 9.64636 4.09374 8.25274 5.03318L6.9089 3.68312C6.41741 3.1854 5.61483 3.1854 5.11712 3.6769L3.72972 5.05807C3.232 5.54956 3.232 6.35214 3.7235 6.84985L5.0549 8.18747C4.09679 9.57487 3.45598 11.124 3.15112 12.7229L1.27846 12.7167C0.58165 12.7167 0.00927325 13.2829 0.00927325 13.9797L0.00305176 15.9394C0.00305176 16.6363 0.569207 17.2086 1.26601 17.2086L3.13246 17.2148C3.42487 18.82 4.05324 20.3816 4.99891 21.7814L3.67995 23.0879C3.18223 23.5794 3.18223 24.382 3.67373 24.8797L5.0549 26.2671C5.5464 26.7648 6.34897 26.7648 6.84669 26.2733L8.16564 24.9668C9.56548 25.9249 11.1146 26.5595 12.7198 26.8582L12.7136 28.7246C12.7136 29.4214 13.2797 29.9938 13.9765 29.9938L15.9363 30C16.6331 30 17.2055 29.4338 17.2055 28.737L17.2117 26.8644C18.8106 26.5657 20.3598 25.9374 21.7534 24.9793L23.0848 26.3169C23.5763 26.8146 24.3788 26.8146 24.8766 26.3231L26.264 24.9419C26.7617 24.4504 26.7617 23.6479 26.2702 23.1501L24.9263 21.8001C25.872 20.4127 26.4941 18.8698 26.799 17.2771L28.7214 17.2833C29.4182 17.2833 29.9906 16.7171 29.9906 16.0203L29.9968 14.0606C29.9968 13.3637 29.4307 12.7914 28.7277 12.7914ZM14.9968 23.1813C10.48 23.1813 6.81558 19.5168 6.81558 15C6.81558 10.4832 10.48 6.81875 14.9968 6.81875C19.5136 6.81875 23.1781 10.4832 23.1781 15C23.1781 19.5168 19.5136 23.1813 14.9968 23.1813ZM14.9968 9.45666C11.9359 9.45666 9.45349 11.939 9.45349 15C9.45349 18.061 11.9359 20.5433 14.9968 20.5433C18.0578 20.5433 20.5402 18.061 20.5402 15C20.5402 11.939 18.0578 9.45666 14.9968 9.45666ZM14.9968 13.1647C13.9827 13.1647 13.1615 13.9859 13.1615 15C13.1615 15.4417 12.8069 15.7963 12.3651 15.7963C11.9234 15.7963 11.5688 15.4417 11.5688 15C11.5688 13.1087 13.1055 11.572 14.9968 11.572C15.4386 11.572 15.7932 11.9266 15.7932 12.3683C15.7932 12.81 15.4386 13.1647 14.9968 13.1647Z" fill="#414141"/>
</g>
<defs>
<clipPath id="clip0_35_201">
<rect width="30" height="30" fill="white"/>
</clipPath>
</defs>
</svg>
