<svg width="28" height="30" viewBox="0 0 28 30" fill="none" xmlns="http://www.w3.org/2000/svg">
<g clip-path="url(#clip0_35_219)">
<path d="M13.8461 1.00964C6.7067 1.00964 0.865356 6.85099 0.865356 13.9904V17.2356C0.865356 20.2645 3.24516 22.6443 6.27401 22.6443C6.92305 22.6443 7.35574 22.2116 7.35574 21.5625V12.9087C7.35574 12.2596 6.92305 11.827 6.27401 11.827C5.08411 11.827 4.00238 12.2596 3.13699 12.9087C3.67786 7.50003 8.3293 3.17311 13.8461 3.17311C19.363 3.17311 24.0144 7.39186 24.5553 12.9087C23.6899 12.2596 22.6081 11.827 21.4182 11.827C20.7692 11.827 20.3365 12.2596 20.3365 12.9087V21.5625C20.3365 22.2116 20.7692 22.6443 21.4182 22.6443C22.0673 22.6443 22.8245 22.5361 23.3654 22.2116C22.1755 24.375 20.3365 26.1058 18.0649 27.0794C17.8485 25.7813 16.7668 24.6995 15.3605 24.6995C13.9543 24.6995 12.7644 25.8895 12.7644 27.2957C12.7644 28.0529 13.0889 28.8101 13.738 29.351C14.2788 29.7837 14.8197 30 15.4687 30C15.5769 30 15.7932 30 15.9014 30C22.0673 29.1346 26.8269 23.6178 26.8269 17.2356V13.9904C26.8269 6.85099 20.9855 1.00964 13.8461 1.00964Z" fill="#414141"/>
</g>
<defs>
<clipPath id="clip0_35_219">
<rect width="27.6923" height="30" fill="white"/>
</clipPath>
</defs>
</svg>
