<svg width="30" height="30" viewBox="0 0 30 30" fill="none" xmlns="http://www.w3.org/2000/svg">
<path d="M14.9999 0C9.34783 0 4.74951 4.59826 4.74951 10.2503C4.74951 13.6693 6.43807 16.8008 9.19402 18.6988V25.9342C9.19402 26.5123 9.66277 26.9811 10.2409 26.9811H11.0595C12.1296 31.0049 17.8696 31.0075 18.9403 26.9811H19.7589C20.3371 26.9811 20.8058 26.5123 20.8058 25.9342V18.6988C23.5621 16.8005 25.2504 13.6689 25.2504 10.2503C25.2502 4.59826 20.652 0 14.9999 0ZM13.3159 26.9812H16.684C15.905 28.2296 14.094 28.2284 13.3159 26.9812ZM18.712 24.8873C17.9165 24.8873 12.0434 24.8873 11.2878 24.8873V23.6336H18.712V24.8873ZM18.712 21.5398H11.2878V19.8077C13.6034 20.7064 16.2661 20.7569 18.712 19.8077V21.5398ZM18.0406 17.8208V13.0466C18.0406 12.4685 17.5718 11.9997 16.9937 11.9997C16.4155 11.9997 15.9468 12.4685 15.9468 13.0466V18.3518C15.2841 18.4288 14.6728 18.4239 14.0531 18.3518V13.0466C14.0531 12.4685 13.5844 11.9997 13.0063 11.9997C12.4281 11.9997 11.9594 12.4685 11.9594 13.0466V17.8208C8.93434 16.6065 6.84342 13.6532 6.84342 10.2504C6.84342 5.75279 10.5025 2.09385 15 2.09385C19.4976 2.09385 23.1566 5.75279 23.1566 10.2503C23.1564 13.6516 21.0661 16.6063 18.0406 17.8208Z" fill="#414141"/>
</svg>
